G04*
G04 #@! TF.GenerationSoftware,Altium Limited,Altium Designer,22.4.2 (48)*
G04*
G04 Layer_Color=16711935*
%FSLAX26Y26*%
%MOIN*%
G70*
G04*
G04 #@! TF.SameCoordinates,6CEC26E3-1FB6-4E6F-AFBB-73261986176E*
G04*
G04*
G04 #@! TF.FilePolarity,Positive*
G04*
G01*
G75*
%ADD47C,0.003937*%
%ADD48C,0.006000*%
D47*
X-133858Y47244D02*
X-118110Y0D01*
X-102362Y47244D01*
X-118110Y1102362D02*
X-102362Y1055118D01*
X-133858D02*
X-118110Y1102362D01*
Y0D02*
Y342392D01*
Y740096D02*
Y1102362D01*
X-122047Y0D02*
X-3937D01*
X-122047Y1102362D02*
X-3937D01*
X0Y-118110D02*
X47244Y-102362D01*
X0Y-118110D02*
X47244Y-133858D01*
X1724409D02*
X1771653Y-118110D01*
X1724409Y-102362D02*
X1771653Y-118110D01*
X0D02*
X677038D01*
X1074742D02*
X1771653D01*
X0Y-122047D02*
Y-3937D01*
X1771653Y-122047D02*
Y-3937D01*
D48*
X-88496Y383815D02*
Y352329D01*
X-119982Y383815D01*
X-127853D01*
X-135725Y375943D01*
Y360200D01*
X-127853Y352329D01*
Y399558D02*
X-135725Y407429D01*
Y423172D01*
X-127853Y431043D01*
X-119982D01*
X-112110Y423172D01*
X-104239Y431043D01*
X-96367D01*
X-88496Y423172D01*
Y407429D01*
X-96367Y399558D01*
X-104239D01*
X-112110Y407429D01*
X-119982Y399558D01*
X-127853D01*
X-112110Y407429D02*
Y423172D01*
X-88496Y446786D02*
X-96367D01*
Y454658D01*
X-88496D01*
Y446786D01*
X-127853Y486144D02*
X-135725Y494015D01*
Y509758D01*
X-127853Y517630D01*
X-96367D01*
X-88496Y509758D01*
Y494015D01*
X-96367Y486144D01*
X-127853D01*
Y533373D02*
X-135725Y541244D01*
Y556987D01*
X-127853Y564859D01*
X-96367D01*
X-88496Y556987D01*
Y541244D01*
X-96367Y533373D01*
X-127853D01*
X-88496Y596344D02*
X-104239Y580601D01*
X-119982D01*
X-135725Y596344D01*
X-88496Y619959D02*
X-119982D01*
Y627830D01*
X-112110Y635702D01*
X-88496D01*
X-112110D01*
X-119982Y643573D01*
X-112110Y651445D01*
X-88496D01*
Y667188D02*
X-119982D01*
Y675059D01*
X-112110Y682931D01*
X-88496D01*
X-112110D01*
X-119982Y690802D01*
X-112110Y698673D01*
X-88496D01*
Y714416D02*
X-104239Y730159D01*
X-119982D01*
X-135725Y714416D01*
X710589Y-147725D02*
Y-100496D01*
X686975Y-124110D01*
X718460D01*
X765689Y-100496D02*
X734203D01*
Y-124110D01*
X749946Y-116239D01*
X757818D01*
X765689Y-124110D01*
Y-139853D01*
X757818Y-147725D01*
X742075D01*
X734203Y-139853D01*
X781432Y-147725D02*
Y-139853D01*
X789304D01*
Y-147725D01*
X781432D01*
X820789Y-108367D02*
X828661Y-100496D01*
X844404D01*
X852275Y-108367D01*
Y-139853D01*
X844404Y-147725D01*
X828661D01*
X820789Y-139853D01*
Y-108367D01*
X868018D02*
X875890Y-100496D01*
X891633D01*
X899504Y-108367D01*
Y-139853D01*
X891633Y-147725D01*
X875890D01*
X868018Y-139853D01*
Y-108367D01*
X930990Y-147725D02*
X915247Y-131982D01*
Y-116239D01*
X930990Y-100496D01*
X954605Y-147725D02*
Y-116239D01*
X962476D01*
X970347Y-124110D01*
Y-147725D01*
Y-124110D01*
X978219Y-116239D01*
X986090Y-124110D01*
Y-147725D01*
X1001833D02*
Y-116239D01*
X1009705D01*
X1017576Y-124110D01*
Y-147725D01*
Y-124110D01*
X1025448Y-116239D01*
X1033319Y-124110D01*
Y-147725D01*
X1049062D02*
X1064805Y-131982D01*
Y-116239D01*
X1049062Y-100496D01*
M02*
