M48
;Layer_Color=9474304
;FILE_FORMAT=2:5
INCH,LZ
;TYPE=PLATED
T1F00S00C0.01181
T2F00S00C0.03543
%
T01
X00625Y0038287
X0078937Y0055118
X0078248Y0060433
X0063583Y0071555
X0107776Y0071752
X0110138Y0079626
X0120768Y0076968
X0119685Y0059744
X0123327Y0042618
X0107874Y0042323
X0095768Y0050197
X0135236Y0051279
X0137795Y0064468
X0138484Y0077953
X0150492Y0070571
X0159547Y0067126
X0162894Y0078937
X0149508Y0058071
X0149311Y0037697
X0142028
X0136614Y0035138
X015374Y0041142
X0121457Y0026575
X011998Y002185
X005935Y0027165
X0056201Y0024705
X004498Y004252
X004626Y0051968
X0046654Y0056595
X0029134Y0055118
X0026083Y0052559
X0024016Y0048917
X0021654
X0026378Y0028839
X0020768Y0077559
X0014567Y0077953
X0053051Y0071555
X005935Y0072835
Y006998
X0020079Y00875
T02
X007Y0010118
X008
X009
X01
X011
X012
X013
X014
X015
X016
X017
X0170866Y0035118
Y0045118
Y0055118
Y0065118
Y0075118
X006Y0010118
X005
X004
X003
X002
X001
Y0100118
X002
X003
X004
X005
X006
X007
X008
X009
X01
X011
X012
X013
X014
X015
X016
X017
M30
