G04*
G04 #@! TF.GenerationSoftware,Altium Limited,Altium Designer,22.4.2 (48)*
G04*
G04 Layer_Color=255*
%FSLAX26Y26*%
%MOIN*%
G70*
G04*
G04 #@! TF.SameCoordinates,6CEC26E3-1FB6-4E6F-AFBB-73261986176E*
G04*
G04*
G04 #@! TF.FilePolarity,Positive*
G04*
G01*
G75*
%ADD14R,0.031496X0.037402*%
%ADD15R,0.037402X0.031496*%
%ADD32C,0.059055*%
%ADD33R,0.059055X0.059055*%
%ADD34R,0.059055X0.059055*%
%ADD36R,0.023622X0.070866*%
%ADD37R,0.074803X0.070866*%
%ADD38R,0.053150X0.015748*%
%ADD39R,0.062992X0.082677*%
%ADD40R,0.074803X0.074803*%
D14*
X275591Y602362D02*
D03*
X334646D02*
D03*
X746063Y551181D02*
D03*
X687008D02*
D03*
X558071Y425197D02*
D03*
X499016D02*
D03*
D15*
X442913Y847441D02*
D03*
Y788386D02*
D03*
X593504Y612205D02*
D03*
Y671260D02*
D03*
X527559Y519685D02*
D03*
Y578740D02*
D03*
X625000Y435039D02*
D03*
Y494094D02*
D03*
D32*
X1708661Y751181D02*
D03*
Y651181D02*
D03*
Y551181D02*
D03*
Y451181D02*
D03*
X100000Y1001181D02*
D03*
X200000D02*
D03*
X300000D02*
D03*
X400000D02*
D03*
X500000D02*
D03*
X600000D02*
D03*
X700000D02*
D03*
X800000D02*
D03*
X900000D02*
D03*
X1000000D02*
D03*
X1100000D02*
D03*
X1200000D02*
D03*
X1300000D02*
D03*
X1400000D02*
D03*
X1500000D02*
D03*
X1600000D02*
D03*
Y101181D02*
D03*
X1500000D02*
D03*
X1400000D02*
D03*
X1300000D02*
D03*
X1200000D02*
D03*
X1100000D02*
D03*
X1000000D02*
D03*
X900000D02*
D03*
X800000D02*
D03*
X700000D02*
D03*
X600000D02*
D03*
X500000D02*
D03*
X400000D02*
D03*
X300000D02*
D03*
X200000D02*
D03*
X100000D02*
D03*
D33*
X1708661Y351181D02*
D03*
D34*
X1700000Y1001181D02*
D03*
Y101181D02*
D03*
D36*
X296260Y785433D02*
D03*
X371063D02*
D03*
X333661Y690945D02*
D03*
D37*
X58071Y708661D02*
D03*
Y393701D02*
D03*
D38*
X164370Y525591D02*
D03*
Y602362D02*
D03*
Y576772D02*
D03*
Y551181D02*
D03*
Y500000D02*
D03*
D39*
X146654Y683071D02*
D03*
Y419291D02*
D03*
D40*
X58071Y503937D02*
D03*
Y598425D02*
D03*
M02*
