G04*
G04 #@! TF.GenerationSoftware,Altium Limited,Altium Designer,22.4.2 (48)*
G04*
G04 Layer_Color=8421504*
%FSLAX26Y26*%
%MOIN*%
G70*
G04*
G04 #@! TF.SameCoordinates,6CEC26E3-1FB6-4E6F-AFBB-73261986176E*
G04*
G04*
G04 #@! TF.FilePolarity,Positive*
G04*
G01*
G75*
%ADD14R,0.031496X0.037402*%
%ADD15R,0.037402X0.031496*%
%ADD16O,0.062992X0.021654*%
%ADD17O,0.021654X0.062992*%
%ADD18R,0.047244X0.055118*%
%ADD19R,0.053150X0.031496*%
D14*
X966378Y731142D02*
D03*
X1025433D02*
D03*
X206693Y817913D02*
D03*
X145669D02*
D03*
X656496Y208661D02*
D03*
X595472D02*
D03*
D15*
X1109252Y584646D02*
D03*
Y525591D02*
D03*
D16*
X396654Y708661D02*
D03*
Y677165D02*
D03*
Y645669D02*
D03*
Y614173D02*
D03*
Y582677D02*
D03*
Y551181D02*
D03*
Y519685D02*
D03*
Y488189D02*
D03*
Y456693D02*
D03*
Y425197D02*
D03*
Y393701D02*
D03*
X853346D02*
D03*
Y425197D02*
D03*
Y456693D02*
D03*
Y488189D02*
D03*
Y519685D02*
D03*
Y551181D02*
D03*
Y582677D02*
D03*
Y614173D02*
D03*
Y645669D02*
D03*
Y677165D02*
D03*
Y708661D02*
D03*
D17*
X467520Y322835D02*
D03*
X499016D02*
D03*
X530512D02*
D03*
X562008D02*
D03*
X593504D02*
D03*
X625000D02*
D03*
X656496D02*
D03*
X687992D02*
D03*
X719488D02*
D03*
X750984D02*
D03*
X782480D02*
D03*
Y779528D02*
D03*
X750984D02*
D03*
X719488D02*
D03*
X687992D02*
D03*
X656496D02*
D03*
X625000D02*
D03*
X593504D02*
D03*
X562008D02*
D03*
X530512D02*
D03*
X499016D02*
D03*
X467520D02*
D03*
D18*
X1023622Y649606D02*
D03*
X944882D02*
D03*
X1023622Y562992D02*
D03*
X944882D02*
D03*
D19*
X263779Y344488D02*
D03*
Y421260D02*
D03*
M02*
