G04*
G04 #@! TF.GenerationSoftware,Altium Limited,Altium Designer,22.4.2 (48)*
G04*
G04 Layer_Color=32896*
%FSLAX26Y26*%
%MOIN*%
G70*
G04*
G04 #@! TF.SameCoordinates,6CEC26E3-1FB6-4E6F-AFBB-73261986176E*
G04*
G04*
G04 #@! TF.FilePolarity,Positive*
G04*
G01*
G75*
%ADD10C,0.009842*%
%ADD13C,0.007874*%
D10*
X267716Y785433D02*
G03*
X267716Y785433I-4921J0D01*
G01*
D13*
X413386Y876968D02*
X472441D01*
Y758858D02*
Y876968D01*
X413386Y758858D02*
X472441D01*
X413386D02*
Y876968D01*
X272638Y704724D02*
Y736221D01*
Y704724D02*
X306102D01*
X394685D02*
Y736221D01*
X361220Y704724D02*
X394685D01*
X246063Y572835D02*
Y631890D01*
X364173D01*
Y572835D02*
Y631890D01*
X246063Y572835D02*
X364173D01*
X103347Y698819D02*
X107284D01*
X103347Y403543D02*
X107284D01*
X984D02*
X12795D01*
X984Y698819D02*
X12795D01*
X984Y403543D02*
Y698819D01*
X170276Y618110D02*
Y633858D01*
Y468504D02*
Y484252D01*
X563976Y582677D02*
X623032D01*
X563976D02*
Y700787D01*
X623032D01*
Y582677D02*
Y700787D01*
X498031Y490158D02*
Y608268D01*
Y490158D02*
X557087D01*
Y608268D01*
X498031D02*
X557087D01*
X657480Y521654D02*
X775591D01*
Y580709D01*
X657480D02*
X775591D01*
X657480Y521654D02*
Y580709D01*
X587598Y395669D02*
Y454724D01*
X469488Y395669D02*
X587598D01*
X469488D02*
Y454724D01*
X587598D01*
X595472Y405512D02*
Y523622D01*
Y405512D02*
X654528D01*
Y523622D01*
X595472D02*
X654528D01*
X545273Y835625D02*
X553144Y843496D01*
X568887D01*
X576759Y835625D01*
Y804139D01*
X568887Y796268D01*
X553144D01*
X545273Y804139D01*
X529530D02*
X521659Y796268D01*
X505916D01*
X498044Y804139D01*
Y835625D01*
X505916Y843496D01*
X521659D01*
X529530Y835625D01*
Y827753D01*
X521659Y819882D01*
X498044D01*
X702753Y716530D02*
X710625Y724402D01*
X726368D01*
X734239Y716530D01*
Y685044D01*
X726368Y677173D01*
X710625D01*
X702753Y685044D01*
X687010Y716530D02*
X679139Y724402D01*
X663396D01*
X655524Y716530D01*
Y708659D01*
X663396Y700787D01*
X655524Y692916D01*
Y685044D01*
X663396Y677173D01*
X679139D01*
X687010Y685044D01*
Y692916D01*
X679139Y700787D01*
X687010Y708659D01*
Y716530D01*
X679139Y700787D02*
X663396D01*
X685044Y470470D02*
X677173Y478341D01*
Y494084D01*
X685044Y501956D01*
X716530D01*
X724402Y494084D01*
Y478341D01*
X716530Y470470D01*
X677173Y454727D02*
Y423241D01*
X685044D01*
X716530Y454727D01*
X724402D01*
X721454Y639759D02*
X729326Y647630D01*
X745068D01*
X752940Y639759D01*
Y608273D01*
X745068Y600401D01*
X729326D01*
X721454Y608273D01*
X674225Y647630D02*
X689968Y639759D01*
X705711Y624016D01*
Y608273D01*
X697840Y600401D01*
X682097D01*
X674225Y608273D01*
Y616144D01*
X682097Y624016D01*
X705711D01*
X235229Y679146D02*
X195871D01*
X188000Y687018D01*
Y702761D01*
X195871Y710632D01*
X235229D01*
X188000Y757861D02*
Y726375D01*
X219486Y757861D01*
X227357D01*
X235229Y749990D01*
Y734247D01*
X227357Y726375D01*
X44296Y885816D02*
X36425Y893688D01*
Y909431D01*
X44296Y917302D01*
X75782D01*
X83654Y909431D01*
Y893688D01*
X75782Y885816D01*
X83654Y870073D02*
X36425D01*
X83654Y838588D01*
X36425D01*
X83654Y791359D02*
Y822845D01*
X52168Y791359D01*
X44296D01*
X36425Y799230D01*
Y814973D01*
X44296Y822845D01*
X473430Y675194D02*
X465559Y683066D01*
Y698809D01*
X473430Y706680D01*
X504916D01*
X512788Y698809D01*
Y683066D01*
X504916Y675194D01*
X465559Y627965D02*
Y659451D01*
X489173D01*
X481302Y643708D01*
Y635837D01*
X489173Y627965D01*
X504916D01*
X512788Y635837D01*
Y651580D01*
X504916Y659451D01*
X538383Y369089D02*
X546255Y376961D01*
X561998D01*
X569869Y369089D01*
Y337604D01*
X561998Y329732D01*
X546255D01*
X538383Y337604D01*
X499026Y329732D02*
Y376961D01*
X522640Y353346D01*
X491154D01*
X379919Y544286D02*
X387790Y552158D01*
X403533D01*
X411404Y544286D01*
Y512800D01*
X403533Y504929D01*
X387790D01*
X379919Y512800D01*
X364176Y544286D02*
X356304Y552158D01*
X340561D01*
X332690Y544286D01*
Y536415D01*
X340561Y528543D01*
X348433D01*
X340561D01*
X332690Y520672D01*
Y512800D01*
X340561Y504929D01*
X356304D01*
X364176Y512800D01*
M02*
