G04*
G04 #@! TF.GenerationSoftware,Altium Limited,Altium Designer,22.4.2 (48)*
G04*
G04 Layer_Physical_Order=1*
G04 Layer_Color=255*
%FSLAX26Y26*%
%MOIN*%
G70*
G04*
G04 #@! TF.SameCoordinates,6CEC26E3-1FB6-4E6F-AFBB-73261986176E*
G04*
G04*
G04 #@! TF.FilePolarity,Positive*
G04*
G01*
G75*
%ADD13C,0.007874*%
%ADD14R,0.031496X0.037402*%
%ADD15R,0.037402X0.031496*%
%ADD16O,0.062992X0.021654*%
%ADD17O,0.021654X0.062992*%
%ADD18R,0.047244X0.055118*%
%ADD19R,0.053150X0.031496*%
%ADD29C,0.015748*%
%ADD30C,0.019685*%
%ADD31C,0.031496*%
%ADD32C,0.059055*%
%ADD33R,0.059055X0.059055*%
%ADD34R,0.059055X0.059055*%
%ADD35C,0.023622*%
G36*
X1681728Y971774D02*
X1681116Y972219D01*
X1680392Y972442D01*
X1679557D01*
X1678610Y972219D01*
X1677552Y971774D01*
X1676383Y971106D01*
X1675102Y970215D01*
X1673710Y969101D01*
X1670592Y966206D01*
X1665025Y971774D01*
X1666584Y973388D01*
X1669034Y976284D01*
X1669924Y977564D01*
X1670592Y978733D01*
X1671038Y979791D01*
X1671261Y980738D01*
Y981573D01*
X1671038Y982297D01*
X1670592Y982909D01*
X1681728Y971774D01*
D02*
G37*
G36*
X1599705Y971655D02*
X1595186Y971632D01*
X1587152Y971170D01*
X1583636Y970731D01*
X1580455Y970153D01*
X1577608Y969435D01*
X1575096Y968579D01*
X1572917Y967584D01*
X1571073Y966450D01*
X1569564Y965177D01*
X1563996Y970745D01*
X1565269Y972254D01*
X1566403Y974098D01*
X1567398Y976277D01*
X1568254Y978789D01*
X1568972Y981636D01*
X1569550Y984817D01*
X1569989Y988333D01*
X1570451Y996367D01*
X1570474Y1000886D01*
X1599705Y971655D01*
D02*
G37*
G36*
X1499705D02*
X1495186Y971632D01*
X1487152Y971170D01*
X1483636Y970731D01*
X1480455Y970153D01*
X1477608Y969435D01*
X1475096Y968579D01*
X1472917Y967584D01*
X1471073Y966450D01*
X1469564Y965177D01*
X1463996Y970745D01*
X1465269Y972254D01*
X1466403Y974098D01*
X1467398Y976277D01*
X1468254Y978789D01*
X1468972Y981636D01*
X1469550Y984817D01*
X1469989Y988333D01*
X1470451Y996367D01*
X1470474Y1000886D01*
X1499705Y971655D01*
D02*
G37*
G36*
X1399705D02*
X1395186Y971632D01*
X1387152Y971170D01*
X1383636Y970731D01*
X1380455Y970153D01*
X1377608Y969435D01*
X1375096Y968579D01*
X1372917Y967584D01*
X1371073Y966450D01*
X1369564Y965177D01*
X1363996Y970745D01*
X1365269Y972254D01*
X1366403Y974098D01*
X1367398Y976277D01*
X1368254Y978789D01*
X1368972Y981636D01*
X1369550Y984817D01*
X1369989Y988333D01*
X1370451Y996367D01*
X1370474Y1000886D01*
X1399705Y971655D01*
D02*
G37*
G36*
X1299705D02*
X1295186Y971632D01*
X1287152Y971170D01*
X1283636Y970731D01*
X1280455Y970153D01*
X1277608Y969435D01*
X1275096Y968579D01*
X1272917Y967584D01*
X1271073Y966450D01*
X1269564Y965177D01*
X1263996Y970745D01*
X1265269Y972254D01*
X1266403Y974098D01*
X1267398Y976277D01*
X1268254Y978789D01*
X1268972Y981636D01*
X1269550Y984817D01*
X1269989Y988333D01*
X1270451Y996367D01*
X1270474Y1000886D01*
X1299705Y971655D01*
D02*
G37*
G36*
X1199705D02*
X1195186Y971632D01*
X1187152Y971170D01*
X1183636Y970731D01*
X1180455Y970153D01*
X1177608Y969435D01*
X1175096Y968579D01*
X1172917Y967584D01*
X1171073Y966450D01*
X1169564Y965177D01*
X1163996Y970745D01*
X1165269Y972254D01*
X1166403Y974098D01*
X1167398Y976277D01*
X1168254Y978789D01*
X1168972Y981636D01*
X1169550Y984817D01*
X1169989Y988333D01*
X1170451Y996367D01*
X1170474Y1000886D01*
X1199705Y971655D01*
D02*
G37*
G36*
X1099705D02*
X1095186Y971632D01*
X1087152Y971170D01*
X1083636Y970731D01*
X1080455Y970153D01*
X1077608Y969435D01*
X1075096Y968579D01*
X1072917Y967584D01*
X1071073Y966450D01*
X1069564Y965177D01*
X1063996Y970745D01*
X1065269Y972254D01*
X1066403Y974098D01*
X1067398Y976277D01*
X1068254Y978789D01*
X1068972Y981636D01*
X1069550Y984817D01*
X1069989Y988333D01*
X1070451Y996367D01*
X1070474Y1000886D01*
X1099705Y971655D01*
D02*
G37*
G36*
X999705D02*
X995186Y971632D01*
X987152Y971170D01*
X983636Y970731D01*
X980455Y970153D01*
X977608Y969435D01*
X975096Y968579D01*
X972917Y967584D01*
X971073Y966450D01*
X969564Y965177D01*
X963996Y970745D01*
X965269Y972254D01*
X966403Y974098D01*
X967398Y976277D01*
X968254Y978789D01*
X968972Y981636D01*
X969550Y984817D01*
X969989Y988333D01*
X970451Y996367D01*
X970474Y1000886D01*
X999705Y971655D01*
D02*
G37*
G36*
X899705D02*
X895186Y971632D01*
X887152Y971170D01*
X883636Y970731D01*
X880455Y970153D01*
X877608Y969435D01*
X875096Y968579D01*
X872917Y967584D01*
X871073Y966450D01*
X869564Y965177D01*
X863996Y970745D01*
X865269Y972254D01*
X866403Y974098D01*
X867398Y976277D01*
X868254Y978789D01*
X868972Y981636D01*
X869550Y984817D01*
X869989Y988333D01*
X870451Y996367D01*
X870474Y1000886D01*
X899705Y971655D01*
D02*
G37*
G36*
X699705D02*
X695186Y971632D01*
X687152Y971170D01*
X683636Y970731D01*
X680455Y970153D01*
X677608Y969435D01*
X675096Y968579D01*
X672917Y967584D01*
X671073Y966450D01*
X669564Y965177D01*
X663996Y970745D01*
X665269Y972254D01*
X666403Y974098D01*
X667398Y976277D01*
X668254Y978789D01*
X668972Y981636D01*
X669550Y984817D01*
X669989Y988333D01*
X670451Y996367D01*
X670474Y1000886D01*
X699705Y971655D01*
D02*
G37*
G36*
X599705D02*
X595186Y971632D01*
X587152Y971170D01*
X583636Y970731D01*
X580455Y970153D01*
X577608Y969435D01*
X575096Y968579D01*
X572917Y967584D01*
X571073Y966450D01*
X569564Y965177D01*
X563996Y970745D01*
X565269Y972254D01*
X566403Y974098D01*
X567398Y976277D01*
X568254Y978789D01*
X568972Y981636D01*
X569550Y984817D01*
X569989Y988333D01*
X570451Y996367D01*
X570474Y1000886D01*
X599705Y971655D01*
D02*
G37*
G36*
X499705D02*
X495186Y971632D01*
X487152Y971170D01*
X483636Y970731D01*
X480455Y970153D01*
X477608Y969435D01*
X475096Y968579D01*
X472917Y967584D01*
X471073Y966450D01*
X469564Y965177D01*
X463996Y970745D01*
X465269Y972254D01*
X466403Y974098D01*
X467398Y976277D01*
X468254Y978789D01*
X468972Y981636D01*
X469550Y984817D01*
X469989Y988333D01*
X470451Y996367D01*
X470474Y1000886D01*
X499705Y971655D01*
D02*
G37*
G36*
X809045Y973073D02*
X803854Y971377D01*
X780622Y962310D01*
X779175Y961415D01*
X778197Y960621D01*
X770755Y964315D01*
X772201Y966020D01*
X773356Y967953D01*
X774218Y970112D01*
X774789Y972499D01*
X775067Y975111D01*
X775053Y977951D01*
X774748Y981017D01*
X774150Y984310D01*
X773260Y987829D01*
X772079Y991575D01*
X809045Y973073D01*
D02*
G37*
G36*
X118612Y977939D02*
X116772Y975720D01*
X115148Y973435D01*
X113740Y971085D01*
X112549Y968671D01*
X111575Y966192D01*
X110817Y963648D01*
X110276Y961038D01*
X109951Y958365D01*
X109843Y955626D01*
X90157D01*
X90049Y958365D01*
X89724Y961038D01*
X89183Y963648D01*
X88425Y966192D01*
X87451Y968671D01*
X86260Y971085D01*
X84852Y973435D01*
X83228Y975720D01*
X81388Y977939D01*
X79331Y980094D01*
X120669D01*
X118612Y977939D01*
D02*
G37*
G36*
X786456Y816019D02*
X786763Y812634D01*
X787032Y811258D01*
X787378Y810095D01*
X787800Y809143D01*
X788300Y808402D01*
X788876Y807873D01*
X789529Y807556D01*
X790259Y807450D01*
X774702D01*
X775432Y807556D01*
X776085Y807873D01*
X776661Y808402D01*
X777160Y809143D01*
X777583Y810095D01*
X777929Y811258D01*
X778198Y812634D01*
X778390Y814221D01*
X778505Y816019D01*
X778543Y818029D01*
X786417D01*
X786456Y816019D01*
D02*
G37*
G36*
X754960D02*
X755267Y812634D01*
X755536Y811258D01*
X755882Y810095D01*
X756304Y809143D01*
X756804Y808402D01*
X757380Y807873D01*
X758033Y807556D01*
X758763Y807450D01*
X743206D01*
X743935Y807556D01*
X744588Y807873D01*
X745165Y808402D01*
X745664Y809143D01*
X746087Y810095D01*
X746433Y811258D01*
X746702Y812634D01*
X746894Y814221D01*
X747009Y816019D01*
X747047Y818029D01*
X754921D01*
X754960Y816019D01*
D02*
G37*
G36*
X723464D02*
X723771Y812634D01*
X724040Y811258D01*
X724386Y810095D01*
X724808Y809143D01*
X725308Y808402D01*
X725884Y807873D01*
X726537Y807556D01*
X727267Y807450D01*
X711709D01*
X712439Y807556D01*
X713092Y807873D01*
X713669Y808402D01*
X714168Y809143D01*
X714591Y810095D01*
X714937Y811258D01*
X715205Y812634D01*
X715398Y814221D01*
X715513Y816019D01*
X715551Y818029D01*
X723425D01*
X723464Y816019D01*
D02*
G37*
G36*
X691968D02*
X692275Y812634D01*
X692544Y811258D01*
X692890Y810095D01*
X693312Y809143D01*
X693812Y808402D01*
X694388Y807873D01*
X695041Y807556D01*
X695771Y807450D01*
X680213D01*
X680943Y807556D01*
X681596Y807873D01*
X682173Y808402D01*
X682672Y809143D01*
X683095Y810095D01*
X683441Y811258D01*
X683709Y812634D01*
X683902Y814221D01*
X684017Y816019D01*
X684055Y818029D01*
X691929D01*
X691968Y816019D01*
D02*
G37*
G36*
X660471D02*
X660779Y812634D01*
X661048Y811258D01*
X661394Y810095D01*
X661816Y809143D01*
X662316Y808402D01*
X662892Y807873D01*
X663545Y807556D01*
X664275Y807450D01*
X648717D01*
X649447Y807556D01*
X650100Y807873D01*
X650677Y808402D01*
X651176Y809143D01*
X651599Y810095D01*
X651944Y811258D01*
X652213Y812634D01*
X652405Y814221D01*
X652521Y816019D01*
X652559Y818029D01*
X660433D01*
X660471Y816019D01*
D02*
G37*
G36*
X565983D02*
X566291Y812634D01*
X566560Y811258D01*
X566905Y810095D01*
X567328Y809143D01*
X567827Y808402D01*
X568404Y807873D01*
X569057Y807556D01*
X569787Y807450D01*
X554229D01*
X554959Y807556D01*
X555612Y807873D01*
X556188Y808402D01*
X556688Y809143D01*
X557111Y810095D01*
X557456Y811258D01*
X557725Y812634D01*
X557917Y814221D01*
X558033Y816019D01*
X558071Y818029D01*
X565945D01*
X565983Y816019D01*
D02*
G37*
G36*
X502991D02*
X503299Y812634D01*
X503567Y811258D01*
X503913Y810095D01*
X504336Y809143D01*
X504835Y808402D01*
X505412Y807873D01*
X506065Y807556D01*
X506795Y807450D01*
X491237D01*
X491967Y807556D01*
X492620Y807873D01*
X493196Y808402D01*
X493696Y809143D01*
X494118Y810095D01*
X494464Y811258D01*
X494733Y812634D01*
X494925Y814221D01*
X495040Y816019D01*
X495079Y818029D01*
X502953D01*
X502991Y816019D01*
D02*
G37*
G36*
X471495D02*
X471803Y812634D01*
X472071Y811258D01*
X472417Y810095D01*
X472840Y809143D01*
X473339Y808402D01*
X473916Y807873D01*
X474569Y807556D01*
X475298Y807450D01*
X459741D01*
X460471Y807556D01*
X461124Y807873D01*
X461700Y808402D01*
X462200Y809143D01*
X462622Y810095D01*
X462968Y811258D01*
X463237Y812634D01*
X463429Y814221D01*
X463544Y816019D01*
X463583Y818029D01*
X471457D01*
X471495Y816019D01*
D02*
G37*
G36*
X159824Y799175D02*
X158506Y798703D01*
X157343Y797915D01*
X156335Y796813D01*
X155482Y795396D01*
X154784Y793663D01*
X154241Y791616D01*
X153865Y789324D01*
X153937Y787962D01*
X153741D01*
X153621Y786577D01*
X153543Y783585D01*
X137795D01*
X137718Y786577D01*
X137597Y787962D01*
X137402D01*
X137476Y788106D01*
X137543Y788384D01*
X137554Y788460D01*
X137485Y789254D01*
X137097Y791616D01*
X136555Y793663D01*
X135857Y795396D01*
X135004Y796813D01*
X133996Y797915D01*
X132833Y798703D01*
X131515Y799175D01*
X130041Y799333D01*
X161297D01*
X159824Y799175D01*
D02*
G37*
G36*
X222321Y799333D02*
X220881Y799175D01*
X219592Y798703D01*
X218454Y797915D01*
X217469Y796813D01*
X216635Y795396D01*
X215953Y793663D01*
X215422Y791616D01*
X215043Y789254D01*
X214934Y787967D01*
X215128Y785042D01*
X215231Y784742D01*
X215346Y784573D01*
X214764Y784533D01*
X214740Y783585D01*
X200987D01*
X198850Y783437D01*
X198877Y783539D01*
X198901Y783778D01*
X198941Y784673D01*
X198946Y785329D01*
X198913Y786594D01*
X198677Y789287D01*
X198283Y791665D01*
X197732Y793726D01*
X197023Y795471D01*
X196157Y796899D01*
X195133Y798012D01*
X193952Y798808D01*
X192614Y799288D01*
X191118Y799453D01*
X222321Y799333D01*
D02*
G37*
G36*
X1749415Y769649D02*
X1744415Y768309D01*
X1740291Y775452D01*
X1732932Y782811D01*
X1723918Y788015D01*
X1713865Y790709D01*
X1703457D01*
X1693404Y788015D01*
X1684391Y782811D01*
X1677032Y775452D01*
X1671828Y766438D01*
X1669134Y756385D01*
Y745977D01*
X1671828Y735924D01*
X1677032Y726911D01*
X1684391Y719551D01*
X1693404Y714347D01*
X1703457Y711654D01*
X1713865D01*
X1723918Y714347D01*
X1732932Y719551D01*
X1740291Y726911D01*
X1744415Y734053D01*
X1749415Y732714D01*
Y669649D01*
X1744415Y668309D01*
X1740291Y675452D01*
X1732932Y682811D01*
X1723918Y688015D01*
X1713865Y690709D01*
X1703457D01*
X1693404Y688015D01*
X1684391Y682811D01*
X1677032Y675452D01*
X1671828Y666438D01*
X1669134Y656385D01*
Y645977D01*
X1671828Y635924D01*
X1677032Y626911D01*
X1684391Y619551D01*
X1693404Y614347D01*
X1703457Y611654D01*
X1713865D01*
X1723918Y614347D01*
X1732932Y619551D01*
X1740291Y626911D01*
X1744415Y634053D01*
X1749415Y632714D01*
Y569649D01*
X1744415Y568309D01*
X1740291Y575452D01*
X1732932Y582811D01*
X1723918Y588015D01*
X1713865Y590709D01*
X1713661D01*
Y551181D01*
Y511654D01*
X1713865D01*
X1723918Y514347D01*
X1732932Y519551D01*
X1740291Y526911D01*
X1744415Y534053D01*
X1749415Y532714D01*
Y469649D01*
X1744415Y468309D01*
X1740291Y475452D01*
X1732932Y482811D01*
X1723918Y488015D01*
X1713865Y490709D01*
X1703457D01*
X1693404Y488015D01*
X1684391Y482811D01*
X1677032Y475452D01*
X1671828Y466438D01*
X1669134Y456385D01*
Y451889D01*
X1668939Y450937D01*
X1668918Y446685D01*
X1668491Y439259D01*
X1668129Y436362D01*
X1667663Y433796D01*
X1667130Y431684D01*
X1666573Y430048D01*
X1666051Y428905D01*
X1665669Y428285D01*
X1663012Y425627D01*
X1554969D01*
X1554910Y425639D01*
X1554724Y425695D01*
X1554533Y425770D01*
X1554322Y425874D01*
X1554082Y426018D01*
X1553803Y426216D01*
X1553480Y426484D01*
X1552876Y427060D01*
X1552130Y427534D01*
X1549756Y429908D01*
X1541740Y433228D01*
X1533063D01*
X1525047Y429908D01*
X1518911Y423772D01*
X1515591Y415756D01*
Y407079D01*
X1518911Y399062D01*
X1525047Y392927D01*
X1533063Y389606D01*
X1541740D01*
X1549756Y392927D01*
X1552130Y395300D01*
X1552876Y395774D01*
X1553480Y396351D01*
X1553803Y396618D01*
X1554082Y396817D01*
X1554322Y396961D01*
X1554533Y397065D01*
X1554724Y397140D01*
X1554911Y397195D01*
X1554968Y397207D01*
X1668898D01*
X1674335Y398289D01*
X1678946Y401369D01*
X1685765Y408189D01*
X1686386Y408571D01*
X1687528Y409093D01*
X1689165Y409650D01*
X1691276Y410182D01*
X1693843Y410649D01*
X1696739Y411011D01*
X1704166Y411438D01*
X1708417Y411459D01*
X1709370Y411654D01*
X1713865D01*
X1723918Y414347D01*
X1732932Y419551D01*
X1740291Y426911D01*
X1744415Y434053D01*
X1749415Y432714D01*
Y395201D01*
X1748189Y390709D01*
X1669134D01*
Y365588D01*
X1383709D01*
X1383651Y365600D01*
X1383464Y365656D01*
X1383273Y365731D01*
X1383063Y365834D01*
X1382822Y365978D01*
X1382543Y366177D01*
X1382221Y366444D01*
X1381616Y367021D01*
X1380870Y367495D01*
X1378497Y369868D01*
X1370480Y373189D01*
X1361803D01*
X1353787Y369868D01*
X1349076Y365158D01*
X1309466D01*
X1267922Y406702D01*
X1263312Y409782D01*
X1257874Y410863D01*
X1022618D01*
X913049Y520433D01*
X915120Y525433D01*
X936700D01*
X936693Y525518D01*
X936299Y527898D01*
X935748Y529961D01*
X935039Y531706D01*
X934173Y533134D01*
X933150Y534245D01*
X931968Y535038D01*
X930630Y535514D01*
X929134Y535673D01*
X939882D01*
Y562992D01*
X944882D01*
Y567992D01*
X978504D01*
Y579513D01*
X983123Y581426D01*
X987984Y576566D01*
X990000Y575219D01*
Y525433D01*
X1057244D01*
Y551017D01*
X1061343Y551832D01*
X1065954Y554913D01*
X1075932Y564891D01*
X1080551Y562977D01*
Y558898D01*
X1137953D01*
Y610394D01*
X1080551D01*
Y598856D01*
X1075591D01*
X1070153Y597774D01*
X1065543Y594694D01*
X1061863Y591015D01*
X1057244Y592928D01*
Y600551D01*
X1005310D01*
X1003937Y600824D01*
X1003918D01*
X997314Y607428D01*
X999227Y612047D01*
X1018622D01*
Y644606D01*
X990000D01*
Y621288D01*
X985000Y618615D01*
X983784Y619428D01*
X978504Y620478D01*
Y687165D01*
X959092D01*
Y700807D01*
X959400Y701115D01*
X960565Y702199D01*
X960865Y702441D01*
X992126D01*
Y759842D01*
X940630D01*
Y722725D01*
X939562Y721469D01*
X934834Y716741D01*
X931754Y712131D01*
X930672Y706693D01*
Y687165D01*
X916769D01*
Y778563D01*
X923209Y785003D01*
X1002953D01*
X1008391Y786084D01*
X1013001Y789165D01*
X1036828Y812992D01*
X1749415D01*
Y769649D01*
D02*
G37*
G36*
X537561Y751500D02*
X536908Y751182D01*
X536331Y750653D01*
X535832Y749913D01*
X535409Y748961D01*
X535064Y747797D01*
X534795Y746422D01*
X534603Y744835D01*
X534487Y743036D01*
X534449Y741026D01*
X526575D01*
X526537Y743036D01*
X526229Y746422D01*
X525960Y747797D01*
X525615Y748961D01*
X525192Y749913D01*
X524692Y750653D01*
X524116Y751182D01*
X523463Y751500D01*
X522733Y751605D01*
X538291D01*
X537561Y751500D01*
D02*
G37*
G36*
X635160Y755255D02*
X634917Y754208D01*
X634703Y752923D01*
X634361Y749639D01*
X634061Y742924D01*
X634004Y737257D01*
X618256Y734790D01*
X618230Y737725D01*
X617604Y747092D01*
X617317Y748840D01*
X616978Y750351D01*
X616587Y751624D01*
X616143Y752660D01*
X615648Y753459D01*
X635431Y756063D01*
X635160Y755255D01*
D02*
G37*
G36*
X857323Y725816D02*
X857441Y724457D01*
X857638Y723258D01*
X857913Y722218D01*
X858268Y721339D01*
X858701Y720620D01*
X859213Y720060D01*
X859803Y719660D01*
X860472Y719420D01*
X861221Y719341D01*
X845472D01*
X846221Y719420D01*
X846890Y719660D01*
X847480Y720060D01*
X847992Y720620D01*
X848425Y721339D01*
X848780Y722218D01*
X849055Y723258D01*
X849252Y724457D01*
X849370Y725816D01*
X849409Y727335D01*
X857284D01*
X857323Y725816D01*
D02*
G37*
G36*
X961885Y712681D02*
X961284Y713114D01*
X960568Y713325D01*
X959739Y713313D01*
X958796Y713078D01*
X957740Y712621D01*
X956569Y711941D01*
X955285Y711038D01*
X953887Y709912D01*
X950750Y706993D01*
X945182Y712561D01*
X946753Y714186D01*
X949227Y717096D01*
X950130Y718380D01*
X950810Y719551D01*
X951267Y720607D01*
X951502Y721550D01*
X951514Y722379D01*
X951303Y723095D01*
X950870Y723696D01*
X961885Y712681D01*
D02*
G37*
G36*
X368731Y700883D02*
X368625Y701612D01*
X368308Y702266D01*
X367779Y702842D01*
X367038Y703341D01*
X366086Y703764D01*
X364923Y704110D01*
X363547Y704379D01*
X361961Y704571D01*
X360162Y704686D01*
X358152Y704724D01*
Y712598D01*
X360162Y712637D01*
X363547Y712944D01*
X364923Y713213D01*
X366086Y713559D01*
X367038Y713981D01*
X367779Y714481D01*
X368308Y715057D01*
X368625Y715710D01*
X368731Y716440D01*
Y700883D01*
D02*
G37*
G36*
X603823Y755596D02*
X603723Y754764D01*
X603558Y752004D01*
X603362Y736221D01*
X607906D01*
Y725249D01*
X607906Y725248D01*
X609293Y718274D01*
X613243Y712362D01*
X614016Y711589D01*
Y711213D01*
X617336Y703196D01*
X623472Y697061D01*
X631488Y693740D01*
X640165D01*
X648182Y697061D01*
X654317Y703196D01*
X657638Y711213D01*
Y719890D01*
X654317Y727906D01*
X651003Y731221D01*
X653074Y736221D01*
X807087D01*
X810039Y733268D01*
Y609077D01*
X809256Y608753D01*
X804291Y608669D01*
X800971Y616686D01*
X794835Y622821D01*
X786819Y626142D01*
X778142D01*
X770125Y622821D01*
X763990Y616686D01*
X760669Y608669D01*
Y599992D01*
X763990Y591976D01*
X770125Y585840D01*
X778142Y582520D01*
X778470D01*
X778953Y582085D01*
X791247Y569791D01*
X791247Y569791D01*
X797160Y565840D01*
X804134Y564453D01*
X804134Y564453D01*
X810039D01*
Y561059D01*
X829882Y561612D01*
Y540750D01*
X829415Y540862D01*
X828583Y540962D01*
X825823Y541127D01*
X810039Y541323D01*
Y395125D01*
X806174Y391953D01*
X805118Y392163D01*
X677165D01*
X671727Y391081D01*
X667117Y388001D01*
X648417Y369300D01*
X645649Y365158D01*
X634905D01*
X635431Y346299D01*
X614569D01*
X614681Y346766D01*
X614781Y347598D01*
X614946Y350358D01*
X615130Y365158D01*
X443898D01*
X439961Y369094D01*
Y415319D01*
X420118Y414766D01*
Y435628D01*
X420585Y435516D01*
X421417Y435416D01*
X424177Y435251D01*
X439961Y435055D01*
Y505475D01*
X445963D01*
X450243Y501195D01*
X458260Y497874D01*
X466937D01*
X474953Y501195D01*
X481089Y507330D01*
X484409Y515346D01*
Y524024D01*
X481089Y532040D01*
X474953Y538176D01*
X471757Y539500D01*
X471732Y539628D01*
X472254Y544706D01*
X478890Y547454D01*
X485026Y553590D01*
X488346Y561606D01*
Y570283D01*
X485026Y578300D01*
X478890Y584435D01*
X470874Y587756D01*
X462197D01*
X454180Y584435D01*
X448045Y578300D01*
X444724Y570284D01*
X441936Y570617D01*
X440593Y570936D01*
X439961Y571187D01*
Y732284D01*
X443898Y736221D01*
X513969D01*
X515336Y731221D01*
X512021Y727906D01*
X508701Y719890D01*
Y711213D01*
X512021Y703196D01*
X518157Y697061D01*
X526173Y693740D01*
X534850D01*
X542867Y697061D01*
X549002Y703196D01*
X552323Y711213D01*
Y719890D01*
X549002Y727906D01*
X545688Y731221D01*
X547054Y736221D01*
X583626D01*
X583073Y756063D01*
X603935D01*
X603823Y755596D01*
D02*
G37*
G36*
X948858Y683400D02*
X948976Y682042D01*
X949173Y680842D01*
X949449Y679803D01*
X949803Y678924D01*
X950236Y678204D01*
X950748Y677645D01*
X951339Y677245D01*
X952008Y677005D01*
X952756Y676925D01*
X937008D01*
X937756Y677005D01*
X938425Y677245D01*
X939016Y677645D01*
X939528Y678204D01*
X939961Y678924D01*
X940315Y679803D01*
X940591Y680842D01*
X940787Y682042D01*
X940905Y683400D01*
X940945Y684919D01*
X948819D01*
X948858Y683400D01*
D02*
G37*
G36*
X881375Y684214D02*
X881692Y683561D01*
X882221Y682985D01*
X882962Y682485D01*
X883914Y682063D01*
X885077Y681717D01*
X886453Y681448D01*
X888039Y681256D01*
X889838Y681141D01*
X891848Y681102D01*
Y673228D01*
X889838Y673190D01*
X886453Y672883D01*
X885077Y672614D01*
X883914Y672268D01*
X882962Y671845D01*
X882221Y671346D01*
X881692Y670769D01*
X881375Y670116D01*
X881269Y669386D01*
Y684944D01*
X881375Y684214D01*
D02*
G37*
G36*
X368731Y669386D02*
X368625Y670116D01*
X368308Y670769D01*
X367779Y671346D01*
X367038Y671845D01*
X366086Y672268D01*
X364923Y672614D01*
X363547Y672883D01*
X361961Y673075D01*
X360162Y673190D01*
X358152Y673228D01*
Y681102D01*
X360162Y681141D01*
X363547Y681448D01*
X364923Y681717D01*
X366086Y682063D01*
X367038Y682485D01*
X367779Y682985D01*
X368308Y683561D01*
X368625Y684214D01*
X368731Y684944D01*
Y669386D01*
D02*
G37*
G36*
X881375Y652718D02*
X881692Y652065D01*
X882221Y651489D01*
X882962Y650989D01*
X883914Y650567D01*
X885077Y650221D01*
X886453Y649952D01*
X888039Y649760D01*
X889838Y649645D01*
X891848Y649606D01*
Y641732D01*
X889838Y641694D01*
X886453Y641386D01*
X885077Y641117D01*
X883914Y640772D01*
X882962Y640349D01*
X882221Y639850D01*
X881692Y639273D01*
X881375Y638620D01*
X881269Y637890D01*
Y653448D01*
X881375Y652718D01*
D02*
G37*
G36*
X368731Y637890D02*
X368625Y638620D01*
X368308Y639273D01*
X367779Y639850D01*
X367038Y640349D01*
X366086Y640772D01*
X364923Y641117D01*
X363547Y641386D01*
X361961Y641578D01*
X360162Y641694D01*
X358152Y641732D01*
Y649606D01*
X360162Y649645D01*
X363547Y649952D01*
X364923Y650221D01*
X366086Y650567D01*
X367038Y650989D01*
X367779Y651489D01*
X368308Y652065D01*
X368625Y652718D01*
X368731Y653448D01*
Y637890D01*
D02*
G37*
G36*
X921500Y637795D02*
X921420Y638543D01*
X921180Y639212D01*
X920780Y639803D01*
X920221Y640315D01*
X919501Y640748D01*
X918622Y641102D01*
X917583Y641378D01*
X916384Y641575D01*
X915025Y641693D01*
X913506Y641732D01*
Y649606D01*
X915025Y649646D01*
X916384Y649764D01*
X917583Y649961D01*
X918622Y650236D01*
X919501Y650590D01*
X920221Y651024D01*
X920780Y651535D01*
X921180Y652126D01*
X921420Y652795D01*
X921500Y653543D01*
Y637795D01*
D02*
G37*
G36*
X881375Y621222D02*
X881692Y620569D01*
X882221Y619993D01*
X882962Y619493D01*
X883914Y619071D01*
X885077Y618725D01*
X886453Y618456D01*
X888039Y618264D01*
X889838Y618149D01*
X891848Y618110D01*
Y610236D01*
X889838Y610198D01*
X886453Y609890D01*
X885077Y609621D01*
X883914Y609276D01*
X882962Y608853D01*
X882221Y608354D01*
X881692Y607777D01*
X881375Y607124D01*
X881269Y606394D01*
Y621952D01*
X881375Y621222D01*
D02*
G37*
G36*
X368731Y606394D02*
X368625Y607124D01*
X368308Y607777D01*
X367779Y608354D01*
X367038Y608853D01*
X366086Y609276D01*
X364923Y609621D01*
X363547Y609890D01*
X361961Y610082D01*
X360162Y610198D01*
X358152Y610236D01*
Y618110D01*
X360162Y618149D01*
X363547Y618456D01*
X364923Y618725D01*
X366086Y619071D01*
X367038Y619493D01*
X367779Y619993D01*
X368308Y620569D01*
X368625Y621222D01*
X368731Y621952D01*
Y606394D01*
D02*
G37*
G36*
X794340Y604058D02*
X794489Y603814D01*
X794738Y603481D01*
X795536Y602549D01*
X798334Y599618D01*
X799284Y598663D01*
X788149Y587527D01*
X782598Y592520D01*
X794291Y604213D01*
X794340Y604058D01*
D02*
G37*
G36*
X1090791Y576772D02*
X1090711Y577520D01*
X1090471Y578189D01*
X1090072Y578780D01*
X1089512Y579291D01*
X1088793Y579724D01*
X1087913Y580079D01*
X1086874Y580354D01*
X1085675Y580551D01*
X1084316Y580669D01*
X1082797Y580709D01*
Y588583D01*
X1084316Y588622D01*
X1085675Y588740D01*
X1086874Y588937D01*
X1087913Y589213D01*
X1088793Y589567D01*
X1089512Y590000D01*
X1090072Y590512D01*
X1090471Y591102D01*
X1090711Y591772D01*
X1090791Y592520D01*
Y576772D01*
D02*
G37*
G36*
X368731Y574898D02*
X368625Y575628D01*
X368308Y576281D01*
X367779Y576858D01*
X367038Y577357D01*
X366086Y577780D01*
X364923Y578125D01*
X363547Y578394D01*
X361961Y578586D01*
X360162Y578702D01*
X358152Y578740D01*
Y586614D01*
X360162Y586653D01*
X363547Y586960D01*
X364923Y587229D01*
X366086Y587574D01*
X367038Y587997D01*
X367779Y588497D01*
X368308Y589073D01*
X368625Y589726D01*
X368731Y590456D01*
Y574898D01*
D02*
G37*
G36*
X827278Y573325D02*
X826754Y573606D01*
X825954Y573857D01*
X824878Y574079D01*
X823525Y574271D01*
X819990Y574567D01*
X812615Y574788D01*
X809603Y574803D01*
Y590551D01*
X812615Y590566D01*
X824878Y591275D01*
X825954Y591497D01*
X826754Y591749D01*
X827278Y592029D01*
Y573325D01*
D02*
G37*
G36*
X1047203Y572087D02*
X1047439Y571417D01*
X1047833Y570827D01*
X1048384Y570315D01*
X1049093Y569882D01*
X1049959Y569528D01*
X1050982Y569252D01*
X1052164Y569055D01*
X1053502Y568937D01*
X1054998Y568898D01*
Y561024D01*
X1053502Y560984D01*
X1052164Y560866D01*
X1050982Y560669D01*
X1049959Y560394D01*
X1049093Y560039D01*
X1048384Y559606D01*
X1047833Y559095D01*
X1047439Y558504D01*
X1047203Y557835D01*
X1047124Y557087D01*
Y572835D01*
X1047203Y572087D01*
D02*
G37*
G36*
X921500Y553030D02*
X921349Y554376D01*
X920897Y555582D01*
X920143Y556645D01*
X919087Y557566D01*
X917729Y558346D01*
X916070Y558984D01*
X914109Y559480D01*
X911847Y559835D01*
X909283Y560047D01*
X906417Y560118D01*
Y575866D01*
X909283Y575937D01*
X911847Y576150D01*
X914109Y576504D01*
X916070Y577000D01*
X917729Y577639D01*
X919087Y578418D01*
X920143Y579340D01*
X920897Y580403D01*
X921349Y581608D01*
X921500Y582955D01*
Y553030D01*
D02*
G37*
G36*
X466417Y554135D02*
X466263Y554086D01*
X466019Y553937D01*
X465686Y553687D01*
X464754Y552889D01*
X461822Y550091D01*
X460867Y549141D01*
X449732Y560277D01*
X454725Y565827D01*
X466417Y554135D01*
D02*
G37*
G36*
X423246Y560253D02*
X424046Y560001D01*
X425122Y559779D01*
X426475Y559587D01*
X430010Y559292D01*
X437385Y559070D01*
X440397Y559055D01*
Y543307D01*
X437385Y543292D01*
X425122Y542583D01*
X424046Y542361D01*
X423246Y542110D01*
X422722Y541829D01*
Y560533D01*
X423246Y560253D01*
D02*
G37*
G36*
X298597Y541746D02*
X297900Y540926D01*
X297285Y540066D01*
X296752Y539168D01*
X296301Y538231D01*
X295932Y537254D01*
X295645Y536239D01*
X295440Y535185D01*
X295317Y534091D01*
X295276Y532959D01*
X287402D01*
X287361Y534091D01*
X287238Y535185D01*
X287033Y536239D01*
X286745Y537254D01*
X286376Y538231D01*
X285925Y539168D01*
X285392Y540066D01*
X284777Y540926D01*
X284080Y541746D01*
X283301Y542527D01*
X299377D01*
X298597Y541746D01*
D02*
G37*
G36*
X881375Y526734D02*
X881692Y526081D01*
X882221Y525505D01*
X882962Y525005D01*
X883914Y524582D01*
X885077Y524237D01*
X886453Y523968D01*
X888039Y523776D01*
X889838Y523660D01*
X891848Y523622D01*
Y515748D01*
X889838Y515710D01*
X886453Y515402D01*
X885077Y515133D01*
X883914Y514788D01*
X882962Y514365D01*
X882221Y513865D01*
X881692Y513289D01*
X881375Y512636D01*
X881269Y511906D01*
Y527464D01*
X881375Y526734D01*
D02*
G37*
G36*
X424682D02*
X424999Y526081D01*
X425528Y525505D01*
X426269Y525005D01*
X427221Y524582D01*
X428384Y524237D01*
X429760Y523968D01*
X431346Y523776D01*
X433145Y523660D01*
X435155Y523622D01*
Y515748D01*
X433145Y515710D01*
X429760Y515402D01*
X428384Y515133D01*
X427221Y514788D01*
X426269Y514365D01*
X425528Y513865D01*
X424999Y513289D01*
X424682Y512636D01*
X424576Y511906D01*
Y527464D01*
X424682Y526734D01*
D02*
G37*
G36*
X272571Y523602D02*
X272620Y522468D01*
X272756Y521374D01*
X272980Y520320D01*
X273291Y519306D01*
X273690Y518333D01*
X274176Y517399D01*
X274750Y516506D01*
X275412Y515653D01*
X276161Y514840D01*
X270244Y509621D01*
X269447Y510360D01*
X268605Y511027D01*
X267718Y511623D01*
X266786Y512148D01*
X265809Y512601D01*
X264787Y512982D01*
X263720Y513292D01*
X262608Y513531D01*
X261451Y513698D01*
X260249Y513794D01*
X272610Y524777D01*
X272571Y523602D01*
D02*
G37*
G36*
X225114Y497366D02*
X225392Y497299D01*
X225803Y497240D01*
X227027Y497146D01*
X231078Y497051D01*
X232425Y497047D01*
Y481299D01*
X224970Y480906D01*
Y497441D01*
X225114Y497366D01*
D02*
G37*
G36*
X881375Y495238D02*
X881692Y494585D01*
X882221Y494008D01*
X882962Y493509D01*
X883914Y493086D01*
X885077Y492741D01*
X886453Y492472D01*
X888039Y492280D01*
X889838Y492164D01*
X891848Y492126D01*
Y484252D01*
X889838Y484214D01*
X886453Y483906D01*
X885077Y483637D01*
X883914Y483291D01*
X882962Y482869D01*
X882221Y482369D01*
X881692Y481793D01*
X881375Y481140D01*
X881269Y480410D01*
Y495968D01*
X881375Y495238D01*
D02*
G37*
G36*
X368731Y480410D02*
X368625Y481140D01*
X368308Y481793D01*
X367779Y482369D01*
X367038Y482869D01*
X366086Y483291D01*
X364923Y483637D01*
X363547Y483906D01*
X361961Y484098D01*
X360162Y484214D01*
X358152Y484252D01*
Y492126D01*
X360162Y492164D01*
X363547Y492472D01*
X364923Y492741D01*
X366086Y493086D01*
X367038Y493509D01*
X367779Y494008D01*
X368308Y494585D01*
X368625Y495238D01*
X368731Y495968D01*
Y480410D01*
D02*
G37*
G36*
X881375Y463742D02*
X881692Y463089D01*
X882221Y462512D01*
X882962Y462013D01*
X883914Y461590D01*
X885077Y461245D01*
X886453Y460976D01*
X888039Y460784D01*
X889838Y460668D01*
X891848Y460630D01*
Y452756D01*
X889838Y452717D01*
X886453Y452410D01*
X885077Y452141D01*
X883914Y451796D01*
X882962Y451373D01*
X882221Y450873D01*
X881692Y450297D01*
X881375Y449644D01*
X881269Y448914D01*
Y464472D01*
X881375Y463742D01*
D02*
G37*
G36*
X368731Y448914D02*
X368625Y449644D01*
X368308Y450297D01*
X367779Y450873D01*
X367038Y451373D01*
X366086Y451796D01*
X364923Y452141D01*
X363547Y452410D01*
X361961Y452602D01*
X360162Y452717D01*
X358152Y452756D01*
Y460630D01*
X360162Y460668D01*
X363547Y460976D01*
X364923Y461245D01*
X366086Y461590D01*
X367038Y462013D01*
X367779Y462512D01*
X368308Y463089D01*
X368625Y463742D01*
X368731Y464472D01*
Y448914D01*
D02*
G37*
G36*
X271732Y449621D02*
X271969Y446923D01*
X272362Y444543D01*
X272913Y442480D01*
X273622Y440735D01*
X274488Y439307D01*
X275512Y438196D01*
X276693Y437402D01*
X278031Y436926D01*
X279527Y436768D01*
X248031D01*
X249528Y436926D01*
X250866Y437402D01*
X252047Y438196D01*
X253071Y439307D01*
X253937Y440735D01*
X254646Y442480D01*
X255197Y444543D01*
X255590Y446923D01*
X255827Y449621D01*
X255905Y452636D01*
X271654D01*
X271732Y449621D01*
D02*
G37*
G36*
X881375Y432246D02*
X881692Y431593D01*
X882221Y431016D01*
X882962Y430517D01*
X883914Y430094D01*
X885077Y429748D01*
X886453Y429480D01*
X888039Y429288D01*
X889838Y429172D01*
X891848Y429134D01*
Y421260D01*
X889838Y421221D01*
X886453Y420914D01*
X885077Y420645D01*
X883914Y420299D01*
X882962Y419877D01*
X882221Y419377D01*
X881692Y418801D01*
X881375Y418148D01*
X881269Y417418D01*
Y432976D01*
X881375Y432246D01*
D02*
G37*
G36*
X1708366Y421655D02*
X1703848Y421632D01*
X1695813Y421170D01*
X1692298Y420731D01*
X1689117Y420153D01*
X1686270Y419435D01*
X1683757Y418579D01*
X1681579Y417584D01*
X1679735Y416450D01*
X1678225Y415177D01*
X1672657Y420745D01*
X1673930Y422254D01*
X1675064Y424098D01*
X1676060Y426277D01*
X1676916Y428789D01*
X1677633Y431636D01*
X1678211Y434817D01*
X1678651Y438333D01*
X1679113Y446367D01*
X1679135Y450886D01*
X1708366Y421655D01*
D02*
G37*
G36*
X1546698Y418862D02*
X1547586Y418126D01*
X1548500Y417476D01*
X1549440Y416913D01*
X1550406Y416437D01*
X1551397Y416047D01*
X1552415Y415744D01*
X1553459Y415527D01*
X1554528Y415398D01*
X1555624Y415354D01*
Y407480D01*
X1554528Y407437D01*
X1553459Y407307D01*
X1552415Y407091D01*
X1551397Y406787D01*
X1550406Y406398D01*
X1549440Y405921D01*
X1548500Y405358D01*
X1547586Y404709D01*
X1546698Y403972D01*
X1545836Y403150D01*
Y419685D01*
X1546698Y418862D01*
D02*
G37*
G36*
X881375Y400750D02*
X881692Y400096D01*
X882221Y399520D01*
X882962Y399021D01*
X883914Y398598D01*
X885077Y398252D01*
X886453Y397983D01*
X888039Y397791D01*
X889838Y397676D01*
X891848Y397638D01*
Y389764D01*
X889838Y389725D01*
X886453Y389418D01*
X885077Y389149D01*
X883914Y388803D01*
X882962Y388381D01*
X882221Y387881D01*
X881692Y387305D01*
X881375Y386652D01*
X881269Y385922D01*
Y401479D01*
X881375Y400750D01*
D02*
G37*
G36*
X368731Y385922D02*
X368625Y386652D01*
X368308Y387305D01*
X367779Y387881D01*
X367038Y388381D01*
X366086Y388803D01*
X364923Y389149D01*
X363547Y389418D01*
X361961Y389610D01*
X360162Y389725D01*
X358152Y389764D01*
Y397638D01*
X360162Y397676D01*
X363547Y397983D01*
X364923Y398252D01*
X366086Y398598D01*
X367038Y399021D01*
X367779Y399520D01*
X368308Y400096D01*
X368625Y400750D01*
X368731Y401479D01*
Y385922D01*
D02*
G37*
G36*
X662414Y357807D02*
X662701Y353491D01*
X662833Y352779D01*
X662989Y352214D01*
X663168Y351795D01*
X663372Y351523D01*
X663600Y351397D01*
X653302Y353640D01*
X653535Y353648D01*
X653743Y353779D01*
X653927Y354033D01*
X654087Y354410D01*
X654221Y354909D01*
X654332Y355532D01*
X654417Y356278D01*
X654515Y358138D01*
X654528Y359252D01*
X662402D01*
X662414Y357807D01*
D02*
G37*
G36*
X1679374Y343504D02*
X1679294Y344252D01*
X1679054Y344921D01*
X1678654Y345512D01*
X1678095Y346024D01*
X1677375Y346457D01*
X1676496Y346811D01*
X1675457Y347087D01*
X1674258Y347284D01*
X1672899Y347402D01*
X1671380Y347441D01*
Y355315D01*
X1672899Y355354D01*
X1674258Y355473D01*
X1675457Y355669D01*
X1676496Y355945D01*
X1677375Y356299D01*
X1678095Y356732D01*
X1678654Y357244D01*
X1679054Y357835D01*
X1679294Y358504D01*
X1679374Y359252D01*
Y343504D01*
D02*
G37*
G36*
X1375438Y358823D02*
X1376326Y358087D01*
X1377240Y357437D01*
X1378180Y356874D01*
X1379146Y356398D01*
X1380138Y356008D01*
X1381155Y355705D01*
X1382199Y355488D01*
X1383268Y355358D01*
X1384364Y355315D01*
Y347441D01*
X1383268Y347398D01*
X1382199Y347268D01*
X1381155Y347051D01*
X1380138Y346748D01*
X1379146Y346358D01*
X1378180Y345882D01*
X1377240Y345319D01*
X1376326Y344669D01*
X1375438Y343933D01*
X1374576Y343110D01*
Y359646D01*
X1375438Y358823D01*
D02*
G37*
G36*
X288200Y328545D02*
X286380Y327600D01*
X284774Y326026D01*
X283382Y323821D01*
X282204Y320986D01*
X281241Y317522D01*
X280491Y313427D01*
X279956Y308703D01*
X279635Y303348D01*
X279528Y297364D01*
X248031D01*
X247924Y303348D01*
X247068Y313427D01*
X246318Y317522D01*
X245355Y320986D01*
X244177Y323821D01*
X242785Y326026D01*
X241179Y327600D01*
X239359Y328545D01*
X237325Y328860D01*
X290234D01*
X288200Y328545D01*
D02*
G37*
G36*
X789529Y294807D02*
X788876Y294489D01*
X788300Y293960D01*
X787800Y293220D01*
X787378Y292267D01*
X787032Y291104D01*
X786763Y289728D01*
X786571Y288142D01*
X786456Y286343D01*
X786417Y284333D01*
X778543D01*
X778505Y286343D01*
X778198Y289728D01*
X777929Y291104D01*
X777583Y292267D01*
X777160Y293220D01*
X776661Y293960D01*
X776085Y294489D01*
X775432Y294807D01*
X774702Y294912D01*
X790259D01*
X789529Y294807D01*
D02*
G37*
G36*
X758033D02*
X757380Y294489D01*
X756804Y293960D01*
X756304Y293220D01*
X755882Y292267D01*
X755536Y291104D01*
X755267Y289728D01*
X755075Y288142D01*
X754960Y286343D01*
X754921Y284333D01*
X747047D01*
X747009Y286343D01*
X746702Y289728D01*
X746433Y291104D01*
X746087Y292267D01*
X745664Y293220D01*
X745165Y293960D01*
X744588Y294489D01*
X743935Y294807D01*
X743206Y294912D01*
X758763D01*
X758033Y294807D01*
D02*
G37*
G36*
X726537D02*
X725884Y294489D01*
X725308Y293960D01*
X724808Y293220D01*
X724386Y292267D01*
X724040Y291104D01*
X723771Y289728D01*
X723579Y288142D01*
X723464Y286343D01*
X723425Y284333D01*
X715551D01*
X715513Y286343D01*
X715205Y289728D01*
X714937Y291104D01*
X714591Y292267D01*
X714168Y293220D01*
X713669Y293960D01*
X713092Y294489D01*
X712439Y294807D01*
X711709Y294912D01*
X727267D01*
X726537Y294807D01*
D02*
G37*
G36*
X695041D02*
X694388Y294489D01*
X693812Y293960D01*
X693312Y293220D01*
X692890Y292267D01*
X692544Y291104D01*
X692275Y289728D01*
X692083Y288142D01*
X691968Y286343D01*
X691929Y284333D01*
X684055D01*
X684017Y286343D01*
X683709Y289728D01*
X683441Y291104D01*
X683095Y292267D01*
X682672Y293220D01*
X682173Y293960D01*
X681596Y294489D01*
X680943Y294807D01*
X680213Y294912D01*
X695771D01*
X695041Y294807D01*
D02*
G37*
G36*
X663545D02*
X662892Y294489D01*
X662316Y293960D01*
X661816Y293220D01*
X661394Y292267D01*
X661048Y291104D01*
X660779Y289728D01*
X660587Y288142D01*
X660471Y286343D01*
X660433Y284333D01*
X652559D01*
X652521Y286343D01*
X652213Y289728D01*
X651944Y291104D01*
X651599Y292267D01*
X651176Y293220D01*
X650677Y293960D01*
X650100Y294489D01*
X649447Y294807D01*
X648717Y294912D01*
X664275D01*
X663545Y294807D01*
D02*
G37*
G36*
X631389Y315116D02*
X630874Y314039D01*
X630420Y312649D01*
X630027Y310944D01*
X629694Y308926D01*
X629209Y303949D01*
X628967Y297716D01*
X628944Y294912D01*
X632779D01*
X632049Y294807D01*
X631396Y294489D01*
X630819Y293960D01*
X630320Y293220D01*
X629897Y292267D01*
X629552Y291104D01*
X629283Y289728D01*
X629091Y288142D01*
X628975Y286343D01*
X628937Y284333D01*
X621063D01*
X621025Y286343D01*
X620717Y289728D01*
X620448Y291104D01*
X620103Y292267D01*
X619680Y293220D01*
X619181Y293960D01*
X618604Y294489D01*
X617951Y294807D01*
X617221Y294912D01*
X621056D01*
X621033Y297716D01*
X620306Y308926D01*
X619973Y310944D01*
X619580Y312649D01*
X619126Y314039D01*
X618611Y315116D01*
X618036Y315879D01*
X631964D01*
X631389Y315116D01*
D02*
G37*
G36*
X569057Y294807D02*
X568404Y294489D01*
X567827Y293960D01*
X567328Y293220D01*
X566905Y292267D01*
X566560Y291104D01*
X566291Y289728D01*
X566099Y288142D01*
X565983Y286343D01*
X565945Y284333D01*
X558071D01*
X558033Y286343D01*
X557725Y289728D01*
X557456Y291104D01*
X557111Y292267D01*
X556688Y293220D01*
X556188Y293960D01*
X555612Y294489D01*
X554959Y294807D01*
X554229Y294912D01*
X569787D01*
X569057Y294807D01*
D02*
G37*
G36*
X537561D02*
X536908Y294489D01*
X536331Y293960D01*
X535832Y293220D01*
X535409Y292267D01*
X535064Y291104D01*
X534795Y289728D01*
X534603Y288142D01*
X534487Y286343D01*
X534449Y284333D01*
X526575D01*
X526537Y286343D01*
X526229Y289728D01*
X525960Y291104D01*
X525615Y292267D01*
X525192Y293220D01*
X524692Y293960D01*
X524116Y294489D01*
X523463Y294807D01*
X522733Y294912D01*
X538291D01*
X537561Y294807D01*
D02*
G37*
G36*
X506065D02*
X505412Y294489D01*
X504835Y293960D01*
X504336Y293220D01*
X503913Y292267D01*
X503567Y291104D01*
X503299Y289728D01*
X503106Y288142D01*
X502991Y286343D01*
X502953Y284333D01*
X495079D01*
X495040Y286343D01*
X494733Y289728D01*
X494464Y291104D01*
X494118Y292267D01*
X493696Y293220D01*
X493196Y293960D01*
X492620Y294489D01*
X491967Y294807D01*
X491237Y294912D01*
X506795D01*
X506065Y294807D01*
D02*
G37*
G36*
X474569D02*
X473916Y294489D01*
X473339Y293960D01*
X472840Y293220D01*
X472417Y292267D01*
X472071Y291104D01*
X471803Y289728D01*
X471610Y288142D01*
X471495Y286343D01*
X471457Y284333D01*
X463583D01*
X463544Y286343D01*
X463237Y289728D01*
X462968Y291104D01*
X462622Y292267D01*
X462200Y293220D01*
X461700Y293960D01*
X461124Y294489D01*
X460471Y294807D01*
X459741Y294912D01*
X475298D01*
X474569Y294807D01*
D02*
G37*
G36*
X602575Y296242D02*
X602324Y295442D01*
X602102Y294366D01*
X601910Y293013D01*
X601615Y289478D01*
X601492Y285391D01*
X601772Y280088D01*
X601383D01*
X601378Y279091D01*
X585630D01*
X585625Y280088D01*
X585236D01*
X585311Y280232D01*
X585378Y280510D01*
X585437Y280921D01*
X585532Y282145D01*
X585555Y283144D01*
X584906Y294366D01*
X584684Y295442D01*
X584433Y296242D01*
X584152Y296766D01*
X602856D01*
X602575Y296242D01*
D02*
G37*
G36*
X1206132Y257480D02*
X1205270Y258303D01*
X1204382Y259039D01*
X1203468Y259689D01*
X1202529Y260252D01*
X1201563Y260728D01*
X1200571Y261118D01*
X1199553Y261421D01*
X1198510Y261638D01*
X1197440Y261768D01*
X1196345Y261811D01*
Y269685D01*
X1197440Y269728D01*
X1198510Y269858D01*
X1199553Y270075D01*
X1200571Y270378D01*
X1201563Y270768D01*
X1202529Y271244D01*
X1203468Y271807D01*
X1204382Y272457D01*
X1205270Y273193D01*
X1206132Y274016D01*
Y257480D01*
D02*
G37*
G36*
X565988Y264174D02*
X566118Y263104D01*
X566335Y262061D01*
X566638Y261043D01*
X567028Y260051D01*
X567504Y259086D01*
X568067Y258146D01*
X568716Y257232D01*
X569453Y256344D01*
X570276Y255482D01*
X553740D01*
X554563Y256344D01*
X555299Y257232D01*
X555949Y258146D01*
X556512Y259086D01*
X556988Y260051D01*
X557378Y261043D01*
X557681Y262061D01*
X557898Y263104D01*
X558028Y264174D01*
X558071Y265269D01*
X565945D01*
X565988Y264174D01*
D02*
G37*
G36*
X264870Y272675D02*
X264086Y272439D01*
X262972Y271815D01*
X261529Y270804D01*
X259756Y269406D01*
X252459Y262887D01*
X242196Y252883D01*
X228276Y266802D01*
X231998Y270553D01*
X247209Y287579D01*
X247833Y288692D01*
X248069Y289476D01*
X264870Y272675D01*
D02*
G37*
G36*
X660472Y233597D02*
X660591Y232238D01*
X660787Y231039D01*
X661063Y230000D01*
X661417Y229121D01*
X661850Y228401D01*
X662362Y227842D01*
X662953Y227442D01*
X663622Y227202D01*
X664370Y227122D01*
X648622D01*
X649370Y227202D01*
X650039Y227442D01*
X650630Y227842D01*
X651142Y228401D01*
X651575Y229121D01*
X651929Y230000D01*
X652205Y231039D01*
X652402Y232238D01*
X652520Y233597D01*
X652559Y235116D01*
X660433D01*
X660472Y233597D01*
D02*
G37*
G36*
X1191368Y210236D02*
X1190506Y211059D01*
X1189619Y211795D01*
X1188705Y212445D01*
X1187765Y213008D01*
X1186799Y213484D01*
X1185807Y213874D01*
X1184790Y214177D01*
X1183746Y214394D01*
X1182677Y214524D01*
X1181581Y214567D01*
Y222441D01*
X1182677Y222484D01*
X1183746Y222614D01*
X1184790Y222831D01*
X1185807Y223134D01*
X1186799Y223524D01*
X1187765Y224000D01*
X1188705Y224563D01*
X1189619Y225213D01*
X1190506Y225949D01*
X1191368Y226772D01*
Y210236D01*
D02*
G37*
G36*
X1100056Y214567D02*
X1098616Y214511D01*
X1097444Y214344D01*
X1096541Y214066D01*
X1095907Y213676D01*
X1095542Y213175D01*
X1095446Y212562D01*
X1095619Y211839D01*
X1096060Y211004D01*
X1096771Y210057D01*
X1097750Y208999D01*
X1086614D01*
X1085478Y210057D01*
X1084295Y211004D01*
X1083066Y211839D01*
X1081791Y212562D01*
X1080470Y213175D01*
X1079103Y213676D01*
X1077689Y214066D01*
X1076230Y214344D01*
X1074724Y214511D01*
X1073172Y214567D01*
X1082677Y222441D01*
X1100056Y214567D01*
D02*
G37*
G36*
X611055Y216631D02*
X611278Y216056D01*
X611650Y215549D01*
X612171Y215109D01*
X612840Y214737D01*
X613658Y214433D01*
X614625Y214196D01*
X615741Y214027D01*
X617006Y213925D01*
X618419Y213892D01*
Y206018D01*
X617006Y205984D01*
X615741Y205882D01*
X614625Y205713D01*
X613658Y205476D01*
X612840Y205172D01*
X612171Y204800D01*
X611650Y204361D01*
X611278Y203853D01*
X611055Y203279D01*
X610981Y202636D01*
Y217273D01*
X611055Y216631D01*
D02*
G37*
G36*
X1404104Y146194D02*
X1404606Y144088D01*
X1405443Y141844D01*
X1406614Y139462D01*
X1408120Y136942D01*
X1409961Y134283D01*
X1412136Y131487D01*
X1417490Y125479D01*
X1420669Y122268D01*
X1379331D01*
X1382510Y125479D01*
X1387864Y131487D01*
X1390039Y134283D01*
X1391880Y136942D01*
X1393386Y139462D01*
X1394557Y141844D01*
X1395394Y144088D01*
X1395896Y146194D01*
X1396063Y148161D01*
X1403937D01*
X1404104Y146194D01*
D02*
G37*
G36*
X1304104D02*
X1304606Y144088D01*
X1305443Y141844D01*
X1306614Y139462D01*
X1308120Y136942D01*
X1309961Y134283D01*
X1312136Y131487D01*
X1317490Y125479D01*
X1320669Y122268D01*
X1279331D01*
X1282510Y125479D01*
X1287864Y131487D01*
X1290039Y134283D01*
X1291880Y136942D01*
X1293386Y139462D01*
X1294557Y141844D01*
X1295394Y144088D01*
X1295896Y146194D01*
X1296063Y148161D01*
X1303937D01*
X1304104Y146194D01*
D02*
G37*
G36*
X109951Y143998D02*
X110276Y141324D01*
X110817Y138715D01*
X111575Y136171D01*
X112549Y133691D01*
X113740Y131277D01*
X115148Y128927D01*
X116772Y126643D01*
X118612Y124423D01*
X120669Y122268D01*
X79331D01*
X81388Y124423D01*
X83228Y126643D01*
X84852Y128927D01*
X86260Y131277D01*
X87451Y133691D01*
X88425Y136171D01*
X89183Y138715D01*
X89724Y141324D01*
X90049Y143998D01*
X90157Y146737D01*
X109843D01*
X109951Y143998D01*
D02*
G37*
G36*
X1672218Y134585D02*
X1675128Y132112D01*
X1676412Y131209D01*
X1677582Y130529D01*
X1678639Y130071D01*
X1679582Y129837D01*
X1680411Y129825D01*
X1681126Y130035D01*
X1681728Y130469D01*
X1670713Y119453D01*
X1671146Y120055D01*
X1671357Y120770D01*
X1671345Y121599D01*
X1671110Y122542D01*
X1670652Y123599D01*
X1669972Y124769D01*
X1669070Y126053D01*
X1667944Y127451D01*
X1665025Y130589D01*
X1670592Y136156D01*
X1672218Y134585D01*
D02*
G37*
G36*
X471914Y135050D02*
X473774Y133835D01*
X475884Y132800D01*
X478243Y131946D01*
X480852Y131273D01*
X483710Y130780D01*
X486817Y130468D01*
X490174Y130336D01*
X493781Y130385D01*
X497637Y130614D01*
X470567Y103544D01*
X470797Y107400D01*
X470714Y114364D01*
X470401Y117471D01*
X469909Y120329D01*
X469235Y122938D01*
X468381Y125297D01*
X467346Y127407D01*
X466132Y129267D01*
X464736Y130877D01*
X470304Y136445D01*
X471914Y135050D01*
D02*
G37*
G36*
X1571073Y135912D02*
X1572917Y134778D01*
X1575096Y133783D01*
X1577608Y132927D01*
X1580455Y132209D01*
X1583636Y131631D01*
X1587152Y131192D01*
X1595186Y130730D01*
X1599705Y130707D01*
X1570474Y101476D01*
X1570451Y105995D01*
X1569989Y114029D01*
X1569550Y117545D01*
X1568972Y120726D01*
X1568254Y123573D01*
X1567398Y126085D01*
X1566403Y128264D01*
X1565269Y130108D01*
X1563996Y131617D01*
X1569564Y137185D01*
X1571073Y135912D01*
D02*
G37*
G36*
X1471073D02*
X1472917Y134778D01*
X1475096Y133783D01*
X1477608Y132927D01*
X1480455Y132209D01*
X1483636Y131631D01*
X1487152Y131192D01*
X1495186Y130730D01*
X1499705Y130707D01*
X1470474Y101476D01*
X1470451Y105995D01*
X1469989Y114029D01*
X1469550Y117545D01*
X1468972Y120726D01*
X1468254Y123573D01*
X1467398Y126085D01*
X1466403Y128264D01*
X1465269Y130108D01*
X1463996Y131617D01*
X1469564Y137185D01*
X1471073Y135912D01*
D02*
G37*
G36*
X1171073D02*
X1172917Y134778D01*
X1175096Y133783D01*
X1177608Y132927D01*
X1180455Y132209D01*
X1183636Y131631D01*
X1187152Y131192D01*
X1195186Y130730D01*
X1199705Y130707D01*
X1170474Y101476D01*
X1170451Y105995D01*
X1169989Y114029D01*
X1169550Y117545D01*
X1168972Y120726D01*
X1168254Y123573D01*
X1167398Y126085D01*
X1166403Y128264D01*
X1165269Y130108D01*
X1163996Y131617D01*
X1169564Y137185D01*
X1171073Y135912D01*
D02*
G37*
G36*
X1071073D02*
X1072917Y134778D01*
X1075096Y133783D01*
X1077608Y132927D01*
X1080455Y132209D01*
X1083636Y131631D01*
X1087152Y131192D01*
X1095186Y130730D01*
X1099705Y130707D01*
X1070474Y101476D01*
X1070451Y105995D01*
X1069989Y114029D01*
X1069550Y117545D01*
X1068972Y120726D01*
X1068254Y123573D01*
X1067398Y126085D01*
X1066403Y128264D01*
X1065269Y130108D01*
X1063996Y131617D01*
X1069564Y137185D01*
X1071073Y135912D01*
D02*
G37*
G36*
X971073D02*
X972917Y134778D01*
X975096Y133783D01*
X977608Y132927D01*
X980455Y132209D01*
X983636Y131631D01*
X987152Y131192D01*
X995186Y130730D01*
X999705Y130707D01*
X970474Y101476D01*
X970451Y105995D01*
X969989Y114029D01*
X969550Y117545D01*
X968972Y120726D01*
X968254Y123573D01*
X967398Y126085D01*
X966403Y128264D01*
X965269Y130108D01*
X963996Y131617D01*
X969564Y137185D01*
X971073Y135912D01*
D02*
G37*
G36*
X871073D02*
X872917Y134778D01*
X875096Y133783D01*
X877608Y132927D01*
X880455Y132209D01*
X883636Y131631D01*
X887152Y131192D01*
X895186Y130730D01*
X899705Y130707D01*
X870474Y101476D01*
X870451Y105995D01*
X869989Y114029D01*
X869550Y117545D01*
X868972Y120726D01*
X868254Y123573D01*
X867398Y126085D01*
X866403Y128264D01*
X865269Y130108D01*
X863996Y131617D01*
X869564Y137185D01*
X871073Y135912D01*
D02*
G37*
G36*
X671073D02*
X672917Y134778D01*
X675096Y133783D01*
X677608Y132927D01*
X680455Y132209D01*
X683636Y131631D01*
X687152Y131192D01*
X695186Y130730D01*
X699705Y130707D01*
X670474Y101476D01*
X670451Y105995D01*
X669989Y114029D01*
X669550Y117545D01*
X668972Y120726D01*
X668254Y123573D01*
X667398Y126085D01*
X666403Y128264D01*
X665269Y130108D01*
X663996Y131617D01*
X669564Y137185D01*
X671073Y135912D01*
D02*
G37*
G36*
X571073D02*
X572917Y134778D01*
X575096Y133783D01*
X577608Y132927D01*
X580455Y132209D01*
X583636Y131631D01*
X587152Y131192D01*
X595186Y130730D01*
X599705Y130707D01*
X570474Y101476D01*
X570451Y105995D01*
X569989Y114029D01*
X569550Y117545D01*
X568972Y120726D01*
X568254Y123573D01*
X567398Y126085D01*
X566403Y128264D01*
X565269Y130108D01*
X563996Y131617D01*
X569564Y137185D01*
X571073Y135912D01*
D02*
G37*
G36*
X371073D02*
X372917Y134778D01*
X375096Y133783D01*
X377608Y132927D01*
X380455Y132209D01*
X383636Y131631D01*
X387152Y131192D01*
X395186Y130730D01*
X399705Y130707D01*
X370474Y101476D01*
X370451Y105995D01*
X369989Y114029D01*
X369550Y117545D01*
X368972Y120726D01*
X368254Y123573D01*
X367398Y126085D01*
X366403Y128264D01*
X365269Y130108D01*
X363996Y131617D01*
X369564Y137185D01*
X371073Y135912D01*
D02*
G37*
%LPC*%
G36*
X1051181Y759842D02*
X1033614D01*
X1033617Y759801D01*
X1034005Y757439D01*
X1034548Y755392D01*
X1035245Y753659D01*
X1036098Y752242D01*
X1037107Y751140D01*
X1038270Y750352D01*
X1039588Y749880D01*
X1041061Y749722D01*
X1030433D01*
Y736142D01*
X1051181D01*
Y759842D01*
D02*
G37*
G36*
X1017252D02*
X999685D01*
Y736142D01*
X1020433D01*
Y749722D01*
X1009805D01*
X1011278Y749880D01*
X1012596Y750352D01*
X1013760Y751140D01*
X1014768Y752242D01*
X1015620Y753659D01*
X1016318Y755392D01*
X1016861Y757439D01*
X1017249Y759801D01*
X1017252Y759842D01*
D02*
G37*
G36*
X1051181Y726142D02*
X1030433D01*
Y712561D01*
X1041061D01*
X1039588Y712403D01*
X1038270Y711931D01*
X1037107Y711144D01*
X1036098Y710041D01*
X1035245Y708624D01*
X1034548Y706892D01*
X1034005Y704844D01*
X1033617Y702482D01*
X1033614Y702441D01*
X1051181D01*
Y726142D01*
D02*
G37*
G36*
X1020433D02*
X999685D01*
Y702441D01*
X1017252D01*
X1017249Y702482D01*
X1016861Y704844D01*
X1016318Y706892D01*
X1015620Y708624D01*
X1014768Y710041D01*
X1013760Y711144D01*
X1012596Y711931D01*
X1011278Y712403D01*
X1009805Y712561D01*
X1020433D01*
Y726142D01*
D02*
G37*
G36*
X1057244Y687165D02*
X1033615D01*
X1033622Y687081D01*
X1034016Y684701D01*
X1034567Y682638D01*
X1035275Y680892D01*
X1036142Y679464D01*
X1037165Y678353D01*
X1038346Y677560D01*
X1039685Y677084D01*
X1041181Y676925D01*
X1028622D01*
Y654606D01*
X1047124D01*
Y665354D01*
X1047282Y663858D01*
X1047754Y662520D01*
X1048541Y661339D01*
X1049644Y660315D01*
X1051061Y659449D01*
X1052793Y658740D01*
X1054841Y658189D01*
X1057203Y657795D01*
X1057244Y657792D01*
Y687165D01*
D02*
G37*
G36*
X1017251D02*
X990000D01*
Y654606D01*
X1018622D01*
Y676925D01*
X1009685D01*
X1011181Y677084D01*
X1012520Y677560D01*
X1013701Y678353D01*
X1014724Y679464D01*
X1015591Y680892D01*
X1016299Y682638D01*
X1016850Y684701D01*
X1017244Y687081D01*
X1017251Y687165D01*
D02*
G37*
G36*
X1047124Y644606D02*
X1028622D01*
Y612047D01*
X1057244D01*
Y641421D01*
X1057203Y641417D01*
X1054841Y641024D01*
X1052793Y640472D01*
X1051061Y639764D01*
X1049644Y638898D01*
X1048541Y637874D01*
X1047754Y636693D01*
X1047282Y635354D01*
X1047124Y633858D01*
Y644606D01*
D02*
G37*
G36*
X1703661Y590709D02*
X1703457D01*
X1693404Y588015D01*
X1684391Y582811D01*
X1677032Y575452D01*
X1671828Y566438D01*
X1669134Y556385D01*
Y556181D01*
X1703661D01*
Y590709D01*
D02*
G37*
G36*
X1137953Y551339D02*
X1114252D01*
Y530591D01*
X1127833D01*
Y541219D01*
X1127990Y539745D01*
X1128463Y538427D01*
X1129250Y537264D01*
X1130352Y536256D01*
X1131770Y535403D01*
X1133502Y534705D01*
X1135549Y534163D01*
X1137911Y533775D01*
X1137953Y533771D01*
Y551339D01*
D02*
G37*
G36*
X1104252D02*
X1080551D01*
Y533771D01*
X1080592Y533775D01*
X1082955Y534163D01*
X1085002Y534705D01*
X1086734Y535403D01*
X1088151Y536256D01*
X1089254Y537264D01*
X1090041Y538427D01*
X1090514Y539745D01*
X1090671Y541219D01*
Y530591D01*
X1104252D01*
Y551339D01*
D02*
G37*
G36*
X978504Y557992D02*
X949882D01*
Y535673D01*
X960630D01*
X959134Y535514D01*
X957795Y535038D01*
X956614Y534245D01*
X955591Y533134D01*
X954724Y531706D01*
X954016Y529961D01*
X953465Y527898D01*
X953071Y525518D01*
X953063Y525433D01*
X978504D01*
Y557992D01*
D02*
G37*
G36*
X1703661Y546181D02*
X1669134D01*
Y545977D01*
X1671828Y535924D01*
X1677032Y526911D01*
X1684391Y519551D01*
X1693404Y514347D01*
X1703457Y511654D01*
X1703661D01*
Y546181D01*
D02*
G37*
G36*
X1104252Y520591D02*
X1090671D01*
Y509963D01*
X1090514Y511436D01*
X1090041Y512754D01*
X1089254Y513917D01*
X1088151Y514925D01*
X1086734Y515778D01*
X1085002Y516476D01*
X1082955Y517019D01*
X1080592Y517406D01*
X1080551Y517410D01*
Y499843D01*
X1104252D01*
Y520591D01*
D02*
G37*
G36*
X1127833D02*
X1114252D01*
Y499843D01*
X1137953D01*
Y517410D01*
X1137911Y517406D01*
X1135549Y517019D01*
X1133502Y516476D01*
X1131770Y515778D01*
X1130352Y514925D01*
X1129250Y513917D01*
X1128463Y512754D01*
X1127990Y511436D01*
X1127833Y509963D01*
Y520591D01*
D02*
G37*
%LPD*%
D13*
X289370Y857284D02*
X377953Y945866D01*
X289370Y660360D02*
Y857284D01*
Y660360D02*
X304061Y645669D01*
X245079Y636811D02*
X299213Y582677D01*
X245079Y946260D02*
X300000Y1001181D01*
X245079Y636811D02*
Y946260D01*
X265748Y654528D02*
Y866929D01*
Y654528D02*
X306103Y614173D01*
X265748Y866929D02*
X400000Y1001181D01*
X1003937Y586614D02*
X1023622Y566929D01*
X998032Y586614D02*
X1003937D01*
X978346Y606299D02*
X998032Y586614D01*
X905512Y606299D02*
X978346D01*
X1023622Y562992D02*
Y566929D01*
X1537402Y411417D02*
X1668898D01*
X1708661Y451181D01*
X897638Y614173D02*
X905512Y606299D01*
X853346Y614173D02*
X897638D01*
X944882Y649606D02*
Y706693D01*
X966378Y728189D01*
Y731142D01*
X853346Y645669D02*
X940945D01*
X944882Y649606D01*
X1075591Y584646D02*
X1109252D01*
X1023622Y564961D02*
X1055906D01*
X1075591Y584646D01*
X396654Y519685D02*
X462598D01*
X1082677Y218504D02*
X1199803D01*
X658465Y324803D02*
Y359252D01*
X656496Y322835D02*
X658465Y324803D01*
Y359252D02*
X677165Y377953D01*
X805118D02*
X917323Y265748D01*
X677165Y377953D02*
X805118D01*
X917323Y265748D02*
X1214567D01*
X1218504Y327756D02*
X1300000Y246260D01*
Y101181D02*
Y246260D01*
X962598Y327756D02*
X1218504D01*
X1366142Y351378D02*
X1708465D01*
X1708661Y351181D01*
X797244Y218504D02*
X1082677D01*
X1200000Y101181D01*
X782480Y233268D02*
Y322835D01*
Y233268D02*
X797244Y218504D01*
X656496Y208661D02*
Y322835D01*
X1002362Y198819D02*
X1100000Y101181D01*
X777559Y198819D02*
X1002362D01*
X750984Y225394D02*
X777559Y198819D01*
X750984Y225394D02*
Y322835D01*
X764764Y173228D02*
X927953D01*
X719488Y218504D02*
Y322835D01*
Y218504D02*
X764764Y173228D01*
X751969Y155512D02*
X845669D01*
X687992Y219488D02*
Y322835D01*
Y219488D02*
X751969Y155512D01*
X927953Y173228D02*
X1000000Y101181D01*
X845669Y155512D02*
X900000Y101181D01*
X853346Y708661D02*
Y790354D01*
X877953Y814961D02*
X993110D01*
X853346Y790354D02*
X877953Y814961D01*
X853346Y519685D02*
X893701D01*
X1016732Y396654D01*
X1257874D01*
X1451772Y202756D01*
X1248032Y379921D02*
X1442913Y185039D01*
X1001968Y379921D02*
X1248032D01*
X893701Y488189D02*
X1001968Y379921D01*
X853346Y488189D02*
X893701D01*
X1237992Y363189D02*
X1500000Y101181D01*
X987205Y363189D02*
X1237992D01*
X893701Y456693D02*
X987205Y363189D01*
X853346Y456693D02*
X893701D01*
X1229331Y345472D02*
X1400000Y174803D01*
X1451772Y202756D02*
X1598425D01*
X1442913Y185039D02*
X1516142D01*
X972441Y345472D02*
X1229331D01*
X853346Y425197D02*
X892717D01*
X972441Y345472D01*
X896654Y393701D02*
X962598Y327756D01*
X853346Y393701D02*
X896654D01*
X917323Y799213D02*
X1002953D01*
X902559Y685039D02*
Y784449D01*
X917323Y799213D01*
X894685Y677165D02*
X902559Y685039D01*
X1002953Y799213D02*
X1037401Y833661D01*
X1532480D01*
X853346Y677165D02*
X894685D01*
X1029528Y851378D02*
X1450197D01*
X993110Y814961D02*
X1029528Y851378D01*
X792323Y830709D02*
X981299D01*
X1019685Y869095D02*
X1367913D01*
X981299Y830709D02*
X1019685Y869095D01*
X782480Y820866D02*
X792323Y830709D01*
X330709Y375984D02*
X348425Y393701D01*
X330709Y170472D02*
Y375984D01*
Y170472D02*
X400000Y101181D01*
X348425Y393701D02*
X396654D01*
X530512Y715551D02*
Y779528D01*
X530512Y715551D02*
X530512Y715551D01*
X304061Y645669D02*
X304061D01*
Y645669D02*
X396654D01*
X299213Y582677D02*
X396654D01*
X562008Y247047D02*
Y322835D01*
X596766Y209955D02*
X618419D01*
X625000Y216536D02*
Y322835D01*
X595472Y208661D02*
X596766Y209955D01*
X618419D02*
X625000Y216536D01*
X561024Y171260D02*
X629921D01*
X700000Y101181D01*
X530512Y201772D02*
Y322835D01*
Y201772D02*
X561024Y171260D01*
X499016Y202165D02*
X600000Y101181D01*
X499016Y202165D02*
Y322835D01*
X467520Y133661D02*
X500000Y101181D01*
X467520Y133661D02*
Y322835D01*
X334646Y721457D02*
Y844488D01*
X400099Y909941D02*
X608760D01*
X334646Y844488D02*
X400099Y909941D01*
X311024Y694882D02*
Y849409D01*
X388780Y927165D01*
X782480Y779528D02*
Y820866D01*
X761811Y847441D02*
X969488D01*
X956693Y864173D02*
X997047Y904528D01*
X1203347D01*
X741142Y864173D02*
X956693D01*
X719488Y842520D02*
X741142Y864173D01*
X750984Y836614D02*
X761811Y847441D01*
X750984Y779528D02*
Y836614D01*
X729331Y881890D02*
X944882D01*
X987205Y924213D01*
X1123032D01*
X687992Y840551D02*
X729331Y881890D01*
X931102Y899606D02*
X974409Y942913D01*
X1041732D01*
X717520Y899606D02*
X931102D01*
X719488Y779528D02*
Y842520D01*
X687992Y779528D02*
Y840551D01*
X656496Y838583D02*
X717520Y899606D01*
X656496Y779528D02*
Y838583D01*
X844488Y914370D02*
X854331Y924213D01*
X646654Y855315D02*
X705709Y914370D01*
X844488D01*
X577756Y855315D02*
X646654D01*
X562008Y839567D02*
X577756Y855315D01*
X562008Y779528D02*
Y839567D01*
X691929Y931102D02*
X829921D01*
X900000Y1001181D01*
X633858Y873032D02*
X691929Y931102D01*
X511811Y873032D02*
X633858D01*
X678150Y948819D02*
X760827D01*
X487205Y889764D02*
X619095D01*
X678150Y948819D01*
X760827D02*
X800000Y987992D01*
X499016Y860236D02*
X511811Y873032D01*
X499016Y779528D02*
Y860236D01*
X467520Y870079D02*
X487205Y889764D01*
X467520Y779528D02*
Y870079D01*
X608760Y909941D02*
X700000Y1001181D01*
X347441Y708661D02*
X396654D01*
X334646Y721457D02*
X347441Y708661D01*
X525984Y927165D02*
X600000Y1001181D01*
X388780Y927165D02*
X525984D01*
X444685Y945866D02*
X500000Y1001181D01*
X377953Y945866D02*
X444685D01*
X328740Y677165D02*
X396654D01*
X311024Y694882D02*
X328740Y677165D01*
X306103Y614173D02*
X396654D01*
X291339Y532480D02*
Y551181D01*
X335630Y488189D02*
X396654D01*
X291339Y532480D02*
X335630Y488189D01*
X260335Y525098D02*
X328740Y456693D01*
X396654D01*
X1400000Y101181D02*
Y174803D01*
X1532480Y833661D02*
X1700000Y1001181D01*
X1450197Y851378D02*
X1600000Y1001181D01*
X969488Y847441D02*
X1008858Y886811D01*
X1285630D01*
X1367913Y869095D02*
X1500000Y1001181D01*
X1285630Y886811D02*
X1400000Y1001181D01*
X1203347Y904528D02*
X1300000Y1001181D01*
X1123032Y924213D02*
X1200000Y1001181D01*
X1516142Y185039D02*
X1600000Y101181D01*
X1598425Y202756D02*
X1700000Y101181D01*
X1041732Y942913D02*
X1100000Y1001181D01*
X854331Y924213D02*
X923032D01*
X1000000Y1001181D01*
X800000Y987992D02*
Y1001181D01*
D14*
X966378Y731142D02*
D03*
X1025433D02*
D03*
X206693Y817913D02*
D03*
X145669D02*
D03*
X656496Y208661D02*
D03*
X595472D02*
D03*
D15*
X1109252Y584646D02*
D03*
Y525591D02*
D03*
D16*
X396654Y708661D02*
D03*
Y677165D02*
D03*
Y645669D02*
D03*
Y614173D02*
D03*
Y582677D02*
D03*
Y551181D02*
D03*
Y519685D02*
D03*
Y488189D02*
D03*
Y456693D02*
D03*
Y425197D02*
D03*
Y393701D02*
D03*
X853346D02*
D03*
Y425197D02*
D03*
Y456693D02*
D03*
Y488189D02*
D03*
Y519685D02*
D03*
Y551181D02*
D03*
Y582677D02*
D03*
Y614173D02*
D03*
Y645669D02*
D03*
Y677165D02*
D03*
Y708661D02*
D03*
D17*
X467520Y322835D02*
D03*
X499016D02*
D03*
X530512D02*
D03*
X562008D02*
D03*
X593504D02*
D03*
X625000D02*
D03*
X656496D02*
D03*
X687992D02*
D03*
X719488D02*
D03*
X750984D02*
D03*
X782480D02*
D03*
Y779528D02*
D03*
X750984D02*
D03*
X719488D02*
D03*
X687992D02*
D03*
X656496D02*
D03*
X625000D02*
D03*
X593504D02*
D03*
X562008D02*
D03*
X530512D02*
D03*
X499016D02*
D03*
X467520D02*
D03*
D18*
X1023622Y649606D02*
D03*
X944882D02*
D03*
X1023622Y562992D02*
D03*
X944882D02*
D03*
D19*
X263779Y344488D02*
D03*
Y421260D02*
D03*
D29*
X1025433Y772480D02*
X1027559Y774606D01*
X1025433Y731142D02*
Y772480D01*
X1079724Y649606D02*
X1082677Y652559D01*
X1023622Y649606D02*
X1079724D01*
X1025433Y651417D02*
Y731142D01*
X1023622Y649606D02*
X1025433Y651417D01*
X1070866Y525591D02*
X1109252D01*
X939882Y567992D02*
X944882Y562992D01*
Y512795D02*
Y562992D01*
X906417Y567992D02*
X939882D01*
X804134Y582677D02*
X891732D01*
X906417Y567992D01*
X1070866Y759842D02*
X1072835Y757874D01*
X1109252Y525591D02*
X1169291D01*
X626130Y725248D02*
Y778398D01*
X625000Y779528D02*
X626130Y778398D01*
Y725248D02*
X635827Y715551D01*
X782480Y604331D02*
X804134Y582677D01*
X396654Y551181D02*
X451772D01*
X466535Y565945D01*
X593504Y271654D02*
Y322835D01*
X593504Y271654D02*
X593504Y271654D01*
X206693Y817913D02*
X206866Y817740D01*
Y776402D02*
Y817740D01*
Y776402D02*
X207677Y775591D01*
X216535Y489173D02*
X254554D01*
X263779Y421260D02*
Y479948D01*
X254554Y489173D02*
X263779Y479948D01*
X145669Y779528D02*
Y817913D01*
D30*
X625000Y382874D02*
Y414370D01*
Y322835D02*
Y382874D01*
X396654Y425197D02*
X458661D01*
X593504Y728346D02*
Y779528D01*
X100000Y922638D02*
X147638Y875000D01*
X200787D01*
X624016Y415354D02*
X625000Y414370D01*
X789370Y551181D02*
X853346D01*
X787402Y549213D02*
X789370Y551181D01*
X458661Y425197D02*
X459646Y426181D01*
X235236Y259842D02*
X263779Y288386D01*
X100000Y922638D02*
Y1001181D01*
X150591Y259842D02*
X235236D01*
X100000Y209252D02*
X150591Y259842D01*
X100000Y101181D02*
Y209252D01*
D31*
X263779Y288386D02*
Y344488D01*
D32*
X1708661Y751181D02*
D03*
Y651181D02*
D03*
Y551181D02*
D03*
Y451181D02*
D03*
X100000Y1001181D02*
D03*
X200000D02*
D03*
X300000D02*
D03*
X400000D02*
D03*
X500000D02*
D03*
X600000D02*
D03*
X700000D02*
D03*
X800000D02*
D03*
X900000D02*
D03*
X1000000D02*
D03*
X1100000D02*
D03*
X1200000D02*
D03*
X1300000D02*
D03*
X1400000D02*
D03*
X1500000D02*
D03*
X1600000D02*
D03*
Y101181D02*
D03*
X1500000D02*
D03*
X1400000D02*
D03*
X1300000D02*
D03*
X1200000D02*
D03*
X1100000D02*
D03*
X1000000D02*
D03*
X900000D02*
D03*
X800000D02*
D03*
X700000D02*
D03*
X600000D02*
D03*
X500000D02*
D03*
X400000D02*
D03*
X300000D02*
D03*
X200000D02*
D03*
X100000D02*
D03*
D33*
X1708661Y351181D02*
D03*
D34*
X1700000Y1001181D02*
D03*
Y101181D02*
D03*
D35*
X240157Y489173D02*
D03*
X1101378Y796260D02*
D03*
X1233268Y426181D02*
D03*
X1078740Y423228D02*
D03*
X1420276Y376969D02*
D03*
X1493110D02*
D03*
X1537402Y411417D02*
D03*
X593504Y699803D02*
D03*
X1077756Y717520D02*
D03*
X957677Y501969D02*
D03*
X1196850Y597441D02*
D03*
X462598Y519685D02*
D03*
X1199803Y218504D02*
D03*
X1214567Y265748D02*
D03*
X1366142Y351378D02*
D03*
X635827Y715551D02*
D03*
X782480Y604331D02*
D03*
X466535Y565945D02*
D03*
X530512Y715551D02*
D03*
X562008Y247047D02*
D03*
X593504Y271654D02*
D03*
X789370Y551181D02*
D03*
X625000Y382874D02*
D03*
X449803Y425197D02*
D03*
X593504Y728346D02*
D03*
X200787Y875000D02*
D03*
X207677Y775591D02*
D03*
X263779Y288386D02*
D03*
X291339Y551181D02*
D03*
X260827Y525591D02*
D03*
X1595473Y671260D02*
D03*
X1504921Y705709D02*
D03*
X1628937Y789370D02*
D03*
X1495079Y580709D02*
D03*
X1384843Y779528D02*
D03*
X1377953Y644685D02*
D03*
X1207677Y769685D02*
D03*
X1352362Y512795D02*
D03*
X145669Y779528D02*
D03*
X216535Y489173D02*
D03*
M02*
