G04*
G04 #@! TF.GenerationSoftware,Altium Limited,Altium Designer,22.4.2 (48)*
G04*
G04 Layer_Physical_Order=2*
G04 Layer_Color=16711680*
%FSLAX26Y26*%
%MOIN*%
G70*
G04*
G04 #@! TF.SameCoordinates,6CEC26E3-1FB6-4E6F-AFBB-73261986176E*
G04*
G04*
G04 #@! TF.FilePolarity,Positive*
G04*
G01*
G75*
%ADD11C,0.023622*%
%ADD13C,0.007874*%
%ADD14R,0.031496X0.037402*%
%ADD15R,0.037402X0.031496*%
%ADD29C,0.015748*%
%ADD30C,0.019685*%
%ADD31C,0.031496*%
%ADD32C,0.059055*%
%ADD33R,0.059055X0.059055*%
%ADD34R,0.059055X0.059055*%
%ADD35C,0.023622*%
%ADD36R,0.023622X0.070866*%
%ADD37R,0.074803X0.070866*%
%ADD38R,0.053150X0.015748*%
%ADD39R,0.062992X0.082677*%
%ADD40R,0.074803X0.074803*%
%ADD41C,0.027559*%
G36*
X1437992Y1024432D02*
X1432992Y1023092D01*
X1431630Y1025452D01*
X1424271Y1032811D01*
X1415257Y1038015D01*
X1405204Y1040709D01*
X1394796D01*
X1384743Y1038015D01*
X1375729Y1032811D01*
X1368370Y1025452D01*
X1363166Y1016438D01*
X1360473Y1006385D01*
Y995977D01*
X1363166Y985924D01*
X1368370Y976911D01*
X1375729Y969551D01*
X1384743Y964347D01*
X1394796Y961654D01*
X1405204D01*
X1415257Y964347D01*
X1424271Y969551D01*
X1431630Y976911D01*
X1432992Y979270D01*
X1437992Y977930D01*
Y864173D01*
X1489173Y812992D01*
X1646653D01*
X1648622Y811024D01*
Y693324D01*
X1605110Y649812D01*
X1602029Y645202D01*
X1600947Y639764D01*
Y333642D01*
X1558644Y291339D01*
X1558071D01*
X1499446Y232714D01*
X1217370D01*
X1217312Y232726D01*
X1217126Y232781D01*
X1216935Y232857D01*
X1216724Y232960D01*
X1216484Y233104D01*
X1216204Y233303D01*
X1215882Y233570D01*
X1215278Y234147D01*
X1214532Y234621D01*
X1212158Y236994D01*
X1204142Y240315D01*
X1195465D01*
X1187448Y236994D01*
X1181313Y230859D01*
X1177992Y222842D01*
Y219488D01*
Y214165D01*
X1179187Y211281D01*
X1176409Y207123D01*
X1145669D01*
X1140231Y206042D01*
X1135621Y202961D01*
X1089952Y157292D01*
X1086872Y152682D01*
X1085790Y147244D01*
Y138296D01*
X1084743Y138015D01*
X1075729Y132811D01*
X1068370Y125452D01*
X1063166Y116438D01*
X1060473Y106385D01*
Y95977D01*
X1063166Y85924D01*
X1068370Y76911D01*
X1075729Y69551D01*
X1084743Y64347D01*
X1094796Y61654D01*
X1105204D01*
X1115257Y64347D01*
X1124271Y69551D01*
X1131630Y76911D01*
X1136834Y85924D01*
X1139527Y95977D01*
Y106385D01*
X1136834Y116438D01*
X1131630Y125452D01*
X1124271Y132811D01*
X1116491Y137303D01*
X1115696Y141563D01*
X1115877Y143025D01*
X1151555Y178703D01*
X1208661D01*
Y143362D01*
X1205204Y140709D01*
X1194796D01*
X1184743Y138015D01*
X1175729Y132811D01*
X1168370Y125452D01*
X1163166Y116438D01*
X1160473Y106385D01*
Y95977D01*
X1163166Y85924D01*
X1168370Y76911D01*
X1175729Y69551D01*
X1184743Y64347D01*
X1194796Y61654D01*
X1205204D01*
X1208661Y59001D01*
Y22238D01*
X22238D01*
Y348268D01*
X105472D01*
Y364173D01*
X200787D01*
Y467543D01*
X205787Y470017D01*
X212197Y467362D01*
X220874D01*
X228346Y470457D01*
X235819Y467362D01*
X244496D01*
X252512Y470683D01*
X258648Y476818D01*
X261969Y484835D01*
Y493512D01*
X259786Y498779D01*
X262929Y503780D01*
X265165D01*
X273182Y507100D01*
X279317Y513236D01*
X282638Y521252D01*
Y525765D01*
X287000Y529370D01*
X295677D01*
X303693Y532691D01*
X307407Y536404D01*
X312407Y534333D01*
Y454093D01*
X248055Y389741D01*
X243234Y382526D01*
X241541Y374016D01*
X241541Y374015D01*
Y331693D01*
Y288386D01*
X241969Y286238D01*
Y284047D01*
X242807Y282024D01*
X243234Y279876D01*
X244451Y278055D01*
X245289Y276031D01*
X246838Y274482D01*
X248055Y272661D01*
X249876Y271444D01*
X251425Y269895D01*
X253448Y269057D01*
X255269Y267840D01*
X257417Y267413D01*
X259441Y266575D01*
X261631D01*
X263779Y266147D01*
X265928Y266575D01*
X268118D01*
X270142Y267413D01*
X272290Y267840D01*
X274111Y269057D01*
X276134Y269895D01*
X277683Y271444D01*
X279504Y272661D01*
X280721Y274482D01*
X282270Y276031D01*
X283108Y278055D01*
X284325Y279876D01*
X284752Y282024D01*
X285591Y284047D01*
Y286238D01*
X286018Y288386D01*
Y331693D01*
Y364804D01*
X350370Y429157D01*
X350371Y429157D01*
X355191Y436372D01*
X356884Y444882D01*
Y567913D01*
Y573661D01*
X360394D01*
Y631063D01*
X354385D01*
Y645512D01*
X355472D01*
Y676546D01*
X358389Y676735D01*
X505906D01*
X511343Y677817D01*
X515953Y680897D01*
X528797Y693740D01*
X534850D01*
X542867Y697061D01*
X548228Y702422D01*
X549002Y703196D01*
X552323Y711213D01*
Y719890D01*
X549002Y727906D01*
X542867Y734042D01*
X534850Y737362D01*
X526173D01*
X518157Y734042D01*
X512021Y727906D01*
X508701Y719890D01*
Y713836D01*
X500019Y705155D01*
X360435D01*
X355472Y709202D01*
Y736378D01*
X358799Y740000D01*
X392874D01*
Y740000D01*
Y761188D01*
X434164D01*
X436192Y760348D01*
X442913Y759463D01*
X525660D01*
X556066Y729057D01*
X567534Y717589D01*
Y697008D01*
X564803D01*
Y645512D01*
X591816D01*
X593504Y645290D01*
X595192Y645512D01*
X622205D01*
Y697008D01*
X619474D01*
Y728346D01*
X618589Y735068D01*
X615995Y741332D01*
X611868Y746710D01*
X554781Y803797D01*
X549402Y807924D01*
X548228Y808410D01*
X543139Y810518D01*
X536417Y811403D01*
X471614D01*
Y814134D01*
X414213D01*
Y809678D01*
X392874D01*
Y830866D01*
X391294D01*
Y850394D01*
X389754Y858136D01*
X385368Y864699D01*
X360762Y889306D01*
X354199Y893691D01*
X346457Y895231D01*
X208940D01*
X205126Y896811D01*
X196449D01*
X188433Y893490D01*
X182297Y887355D01*
X178976Y879338D01*
Y870662D01*
X182297Y862645D01*
X188433Y856510D01*
X196449Y853189D01*
X205126D01*
X208940Y854769D01*
X338077D01*
X350832Y842014D01*
Y830866D01*
X349252D01*
Y795593D01*
X348663Y794711D01*
X346817Y785433D01*
X348663Y776155D01*
X349252Y775274D01*
Y743189D01*
X345002Y738189D01*
X322321D01*
X318071Y740000D01*
X318071Y743189D01*
Y780433D01*
X301260D01*
Y750120D01*
X307951D01*
X307226Y749963D01*
X306577Y749490D01*
X306004Y748703D01*
X305508Y747600D01*
X305088Y746183D01*
X304745Y744451D01*
X304477Y742404D01*
X304332Y740000D01*
X308524D01*
X311850Y736378D01*
Y645512D01*
X313922D01*
Y631063D01*
X308898D01*
Y573661D01*
X312407D01*
Y567913D01*
X305452D01*
X303718Y569647D01*
X302927Y570982D01*
X301339Y573696D01*
X301339Y576059D01*
Y597362D01*
X275591D01*
X249843D01*
Y573661D01*
X271060D01*
X273551Y568661D01*
X272987Y567913D01*
X200945D01*
Y597362D01*
X164370D01*
Y607362D01*
X200945D01*
Y620236D01*
X177165D01*
Y631732D01*
X188150D01*
Y734409D01*
X177165D01*
Y738189D01*
X163893D01*
Y766906D01*
X164160Y767173D01*
X167480Y775189D01*
Y783866D01*
X164160Y791883D01*
X158024Y798018D01*
X150008Y801339D01*
X141331D01*
X133314Y798018D01*
X127179Y791883D01*
X123858Y783866D01*
Y775189D01*
X127179Y767173D01*
X127411Y766941D01*
X127445Y766291D01*
Y738189D01*
X105472D01*
Y754094D01*
X22238D01*
Y1080124D01*
X1437992D01*
Y1024432D01*
D02*
G37*
G36*
X153862Y770949D02*
X153795Y770671D01*
X153736Y770260D01*
X153642Y769036D01*
X153547Y764985D01*
X153543Y763638D01*
X137795D01*
X137402Y771093D01*
X153937D01*
X153862Y770949D01*
D02*
G37*
G36*
X153622Y737023D02*
X153858Y734325D01*
X154252Y731945D01*
X154803Y729882D01*
X155512Y728136D01*
X156378Y726708D01*
X157402Y725598D01*
X158583Y724804D01*
X159921Y724328D01*
X161417Y724169D01*
X129921D01*
X131417Y724328D01*
X132756Y724804D01*
X133937Y725598D01*
X134961Y726708D01*
X135827Y728136D01*
X136536Y729882D01*
X137087Y731945D01*
X137480Y734325D01*
X137717Y737023D01*
X137795Y740038D01*
X153543D01*
X153622Y737023D01*
D02*
G37*
G36*
X1720657Y724200D02*
X1689014Y708053D01*
X1682361Y712535D01*
X1683845Y714279D01*
X1684994Y716207D01*
X1685808Y718318D01*
X1686286Y720614D01*
X1686430Y723093D01*
X1686238Y725756D01*
X1685710Y728604D01*
X1684848Y731635D01*
X1683650Y734850D01*
X1682117Y738248D01*
X1720657Y724200D01*
D02*
G37*
G36*
X345312Y698071D02*
X345552Y697402D01*
X345952Y696811D01*
X346511Y696299D01*
X347231Y695866D01*
X347867Y695610D01*
X352547Y695154D01*
X358780Y694912D01*
X362367Y694882D01*
Y687008D01*
X358780Y686978D01*
X347839Y686269D01*
X347231Y686024D01*
X346511Y685591D01*
X345952Y685079D01*
X345552Y684488D01*
X345312Y683819D01*
X345232Y683071D01*
Y685845D01*
X343847Y685525D01*
X342457Y685071D01*
X341380Y684556D01*
X340617Y683981D01*
Y697909D01*
X341380Y697334D01*
X342457Y696819D01*
X343847Y696365D01*
X345232Y696045D01*
Y698819D01*
X345312Y698071D01*
D02*
G37*
G36*
X95510Y722913D02*
X95982Y721575D01*
X96770Y720394D01*
X97872Y719370D01*
X99289Y718504D01*
X101022Y717795D01*
X103069Y717244D01*
X105330Y716867D01*
X107561Y717233D01*
X109608Y717776D01*
X111341Y718474D01*
X112758Y719327D01*
X113860Y720335D01*
X114648Y721498D01*
X115120Y722816D01*
X115278Y724289D01*
X115398Y692913D01*
X115234Y694409D01*
X114753Y695748D01*
X113957Y696929D01*
X112844Y697953D01*
X111415Y698819D01*
X109671Y699528D01*
X107610Y700079D01*
X105332Y700456D01*
X103069Y700079D01*
X101022Y699528D01*
X99289Y698819D01*
X97872Y697953D01*
X96770Y696929D01*
X95982Y695748D01*
X95510Y694409D01*
X95352Y692913D01*
Y724409D01*
X95510Y722913D01*
D02*
G37*
G36*
X72323Y673310D02*
X70984Y672834D01*
X69803Y672040D01*
X68779Y670929D01*
X67913Y669501D01*
X67205Y667756D01*
X66654Y665693D01*
X66260Y663313D01*
X66024Y660615D01*
X65945Y657600D01*
X50197D01*
X50118Y660615D01*
X49882Y663313D01*
X49488Y665693D01*
X48937Y667756D01*
X48228Y669501D01*
X47362Y670929D01*
X46339Y672040D01*
X45157Y672834D01*
X43819Y673310D01*
X42323Y673468D01*
X73819D01*
X72323Y673310D01*
D02*
G37*
G36*
X66024Y648440D02*
X66260Y645742D01*
X66654Y643362D01*
X67205Y641299D01*
X67913Y639554D01*
X68779Y638126D01*
X69803Y637015D01*
X70984Y636221D01*
X72323Y635745D01*
X73819Y635587D01*
X42323D01*
X43819Y635745D01*
X45157Y636221D01*
X46339Y637015D01*
X47362Y638126D01*
X48228Y639554D01*
X48937Y641299D01*
X49488Y643362D01*
X49882Y645742D01*
X50118Y648440D01*
X50197Y651455D01*
X65945D01*
X66024Y648440D01*
D02*
G37*
G36*
X1708366Y621655D02*
X1703848Y621632D01*
X1695813Y621170D01*
X1692298Y620731D01*
X1689117Y620153D01*
X1686270Y619435D01*
X1683757Y618579D01*
X1681579Y617584D01*
X1679735Y616450D01*
X1678225Y615177D01*
X1672657Y620745D01*
X1673930Y622254D01*
X1675064Y624098D01*
X1676060Y626277D01*
X1676916Y628789D01*
X1677633Y631636D01*
X1678211Y634817D01*
X1678651Y638333D01*
X1679113Y646367D01*
X1679135Y650886D01*
X1708366Y621655D01*
D02*
G37*
G36*
X282904Y542913D02*
X282042Y543736D01*
X281154Y544472D01*
X280240Y545122D01*
X279300Y545685D01*
X278334Y546161D01*
X277343Y546551D01*
X276325Y546854D01*
X275282Y547071D01*
X274212Y547201D01*
X273116Y547244D01*
Y555118D01*
X274212Y555161D01*
X275282Y555291D01*
X276325Y555508D01*
X277343Y555811D01*
X278334Y556201D01*
X279300Y556677D01*
X280240Y557240D01*
X281154Y557890D01*
X282042Y558626D01*
X282904Y559449D01*
Y542913D01*
D02*
G37*
G36*
X72323Y561105D02*
X70984Y560629D01*
X69803Y559836D01*
X68779Y558725D01*
X67913Y557297D01*
X67205Y555551D01*
X66654Y553488D01*
X66272Y551181D01*
X66654Y548874D01*
X67205Y546811D01*
X67913Y545066D01*
X68779Y543637D01*
X69803Y542527D01*
X70984Y541733D01*
X72323Y541257D01*
X73819Y541098D01*
X42323D01*
X43819Y541257D01*
X45157Y541733D01*
X46339Y542527D01*
X47362Y543637D01*
X48228Y545066D01*
X48937Y546811D01*
X49488Y548874D01*
X49870Y551181D01*
X49488Y553488D01*
X48937Y555551D01*
X48228Y557297D01*
X47362Y558725D01*
X46339Y559836D01*
X45157Y560629D01*
X43819Y561105D01*
X42323Y561264D01*
X73819D01*
X72323Y561105D01*
D02*
G37*
G36*
Y466617D02*
X70984Y466141D01*
X69803Y465347D01*
X68779Y464237D01*
X67913Y462808D01*
X67205Y461063D01*
X66654Y459000D01*
X66260Y456620D01*
X66024Y453922D01*
X65945Y450908D01*
X50197D01*
X50118Y453922D01*
X49882Y456620D01*
X49488Y459000D01*
X48937Y461063D01*
X48228Y462808D01*
X47362Y464237D01*
X46339Y465347D01*
X45157Y466141D01*
X43819Y466617D01*
X42323Y466776D01*
X73819D01*
X72323Y466617D01*
D02*
G37*
G36*
X66024Y441747D02*
X66260Y439049D01*
X66654Y436669D01*
X67205Y434606D01*
X67913Y432861D01*
X68779Y431433D01*
X69803Y430322D01*
X70984Y429529D01*
X72323Y429053D01*
X73819Y428894D01*
X42323D01*
X43819Y429053D01*
X45157Y429529D01*
X46339Y430322D01*
X47362Y431433D01*
X48228Y432861D01*
X48937Y434606D01*
X49488Y436669D01*
X49882Y439049D01*
X50118Y441747D01*
X50197Y444762D01*
X65945D01*
X66024Y441747D01*
D02*
G37*
G36*
X115398Y403543D02*
X115239Y405039D01*
X114763Y406378D01*
X113969Y407559D01*
X112859Y408583D01*
X111431Y409449D01*
X109685Y410158D01*
X107622Y410709D01*
X105337Y411087D01*
X103069Y410709D01*
X101022Y410158D01*
X99289Y409449D01*
X97872Y408583D01*
X96770Y407559D01*
X95982Y406378D01*
X95510Y405039D01*
X95352Y403543D01*
Y429014D01*
X95510Y428663D01*
X95982Y428348D01*
X96770Y428071D01*
X97872Y427831D01*
X99289Y427627D01*
X103069Y427332D01*
X103454Y427324D01*
X105242Y427480D01*
X107622Y427874D01*
X109685Y428425D01*
X111431Y429134D01*
X112859Y430000D01*
X113969Y431024D01*
X114763Y432205D01*
X115239Y433543D01*
X115398Y435039D01*
Y403543D01*
D02*
G37*
G36*
X1209100Y225949D02*
X1209988Y225213D01*
X1210902Y224563D01*
X1211841Y224000D01*
X1212807Y223524D01*
X1213799Y223134D01*
X1214816Y222831D01*
X1215860Y222614D01*
X1216930Y222484D01*
X1218025Y222441D01*
Y214567D01*
X1216930Y214524D01*
X1215860Y214394D01*
X1214816Y214177D01*
X1213799Y213874D01*
X1212807Y213484D01*
X1211841Y213008D01*
X1210902Y212445D01*
X1209988Y211795D01*
X1209100Y211059D01*
X1208238Y210236D01*
Y226772D01*
X1209100Y225949D01*
D02*
G37*
%LPC*%
G36*
X205204Y1040709D02*
X205000D01*
Y1006181D01*
X239528D01*
Y1006385D01*
X236834Y1016438D01*
X231630Y1025452D01*
X224270Y1032811D01*
X215257Y1038015D01*
X205204Y1040709D01*
D02*
G37*
G36*
X195000D02*
X194796D01*
X184743Y1038015D01*
X175730Y1032811D01*
X168370Y1025452D01*
X163166Y1016438D01*
X160472Y1006385D01*
Y1006181D01*
X195000D01*
Y1040709D01*
D02*
G37*
G36*
X1305204D02*
X1294796D01*
X1284743Y1038015D01*
X1275729Y1032811D01*
X1268370Y1025452D01*
X1263166Y1016438D01*
X1260473Y1006385D01*
Y995977D01*
X1263166Y985924D01*
X1268370Y976911D01*
X1275729Y969551D01*
X1284743Y964347D01*
X1294796Y961654D01*
X1305204D01*
X1315257Y964347D01*
X1324271Y969551D01*
X1331630Y976911D01*
X1336834Y985924D01*
X1339527Y995977D01*
Y1006385D01*
X1336834Y1016438D01*
X1331630Y1025452D01*
X1324271Y1032811D01*
X1315257Y1038015D01*
X1305204Y1040709D01*
D02*
G37*
G36*
X1205204D02*
X1194796D01*
X1184743Y1038015D01*
X1175729Y1032811D01*
X1168370Y1025452D01*
X1163166Y1016438D01*
X1160473Y1006385D01*
Y995977D01*
X1163166Y985924D01*
X1168370Y976911D01*
X1175729Y969551D01*
X1184743Y964347D01*
X1194796Y961654D01*
X1205204D01*
X1215257Y964347D01*
X1224271Y969551D01*
X1231630Y976911D01*
X1236834Y985924D01*
X1239527Y995977D01*
Y1006385D01*
X1236834Y1016438D01*
X1231630Y1025452D01*
X1224271Y1032811D01*
X1215257Y1038015D01*
X1205204Y1040709D01*
D02*
G37*
G36*
X1105204D02*
X1094796D01*
X1084743Y1038015D01*
X1075729Y1032811D01*
X1068370Y1025452D01*
X1063166Y1016438D01*
X1060473Y1006385D01*
Y995977D01*
X1063166Y985924D01*
X1068370Y976911D01*
X1075729Y969551D01*
X1084743Y964347D01*
X1094796Y961654D01*
X1105204D01*
X1115257Y964347D01*
X1124271Y969551D01*
X1131630Y976911D01*
X1136834Y985924D01*
X1139527Y995977D01*
Y1006385D01*
X1136834Y1016438D01*
X1131630Y1025452D01*
X1124271Y1032811D01*
X1115257Y1038015D01*
X1105204Y1040709D01*
D02*
G37*
G36*
X1005204D02*
X994796D01*
X984743Y1038015D01*
X975730Y1032811D01*
X968370Y1025452D01*
X963166Y1016438D01*
X960472Y1006385D01*
Y995977D01*
X963166Y985924D01*
X968370Y976911D01*
X975730Y969551D01*
X984743Y964347D01*
X994796Y961654D01*
X1005204D01*
X1015257Y964347D01*
X1024271Y969551D01*
X1031630Y976911D01*
X1036834Y985924D01*
X1039527Y995977D01*
Y1006385D01*
X1036834Y1016438D01*
X1031630Y1025452D01*
X1024271Y1032811D01*
X1015257Y1038015D01*
X1005204Y1040709D01*
D02*
G37*
G36*
X905204D02*
X894796D01*
X884743Y1038015D01*
X875730Y1032811D01*
X868370Y1025452D01*
X863166Y1016438D01*
X860472Y1006385D01*
Y995977D01*
X863166Y985924D01*
X868370Y976911D01*
X875730Y969551D01*
X884743Y964347D01*
X894796Y961654D01*
X905204D01*
X915257Y964347D01*
X924270Y969551D01*
X931630Y976911D01*
X936834Y985924D01*
X939528Y995977D01*
Y1006385D01*
X936834Y1016438D01*
X931630Y1025452D01*
X924270Y1032811D01*
X915257Y1038015D01*
X905204Y1040709D01*
D02*
G37*
G36*
X805204D02*
X794796D01*
X784743Y1038015D01*
X775730Y1032811D01*
X768370Y1025452D01*
X763166Y1016438D01*
X760472Y1006385D01*
Y995977D01*
X763166Y985924D01*
X768370Y976911D01*
X775730Y969551D01*
X784743Y964347D01*
X794796Y961654D01*
X805204D01*
X815257Y964347D01*
X824270Y969551D01*
X831630Y976911D01*
X836834Y985924D01*
X839528Y995977D01*
Y1006385D01*
X836834Y1016438D01*
X831630Y1025452D01*
X824270Y1032811D01*
X815257Y1038015D01*
X805204Y1040709D01*
D02*
G37*
G36*
X705204D02*
X694796D01*
X684743Y1038015D01*
X675730Y1032811D01*
X668370Y1025452D01*
X663166Y1016438D01*
X660472Y1006385D01*
Y995977D01*
X663166Y985924D01*
X668370Y976911D01*
X675730Y969551D01*
X684743Y964347D01*
X694796Y961654D01*
X705204D01*
X715257Y964347D01*
X724270Y969551D01*
X731630Y976911D01*
X736834Y985924D01*
X739528Y995977D01*
Y1006385D01*
X736834Y1016438D01*
X731630Y1025452D01*
X724270Y1032811D01*
X715257Y1038015D01*
X705204Y1040709D01*
D02*
G37*
G36*
X605204D02*
X594796D01*
X584743Y1038015D01*
X575730Y1032811D01*
X568370Y1025452D01*
X563166Y1016438D01*
X560472Y1006385D01*
Y995977D01*
X563166Y985924D01*
X568370Y976911D01*
X575730Y969551D01*
X584743Y964347D01*
X594796Y961654D01*
X605204D01*
X615257Y964347D01*
X624270Y969551D01*
X631630Y976911D01*
X636834Y985924D01*
X639528Y995977D01*
Y1006385D01*
X636834Y1016438D01*
X631630Y1025452D01*
X624270Y1032811D01*
X615257Y1038015D01*
X605204Y1040709D01*
D02*
G37*
G36*
X505204D02*
X494796D01*
X484743Y1038015D01*
X475729Y1032811D01*
X468370Y1025452D01*
X463166Y1016438D01*
X460473Y1006385D01*
Y995977D01*
X463166Y985924D01*
X468370Y976911D01*
X475729Y969551D01*
X484743Y964347D01*
X494796Y961654D01*
X505204D01*
X515257Y964347D01*
X524270Y969551D01*
X531630Y976911D01*
X536834Y985924D01*
X539528Y995977D01*
Y1006385D01*
X536834Y1016438D01*
X531630Y1025452D01*
X524270Y1032811D01*
X515257Y1038015D01*
X505204Y1040709D01*
D02*
G37*
G36*
X405204D02*
X394796D01*
X384743Y1038015D01*
X375729Y1032811D01*
X368370Y1025452D01*
X363166Y1016438D01*
X360473Y1006385D01*
Y995977D01*
X363166Y985924D01*
X368370Y976911D01*
X375729Y969551D01*
X384743Y964347D01*
X394796Y961654D01*
X405204D01*
X415257Y964347D01*
X424271Y969551D01*
X431630Y976911D01*
X436834Y985924D01*
X439527Y995977D01*
Y1006385D01*
X436834Y1016438D01*
X431630Y1025452D01*
X424271Y1032811D01*
X415257Y1038015D01*
X405204Y1040709D01*
D02*
G37*
G36*
X305204D02*
X294796D01*
X284743Y1038015D01*
X275729Y1032811D01*
X268370Y1025452D01*
X263166Y1016438D01*
X260473Y1006385D01*
Y995977D01*
X263166Y985924D01*
X268370Y976911D01*
X275729Y969551D01*
X284743Y964347D01*
X294796Y961654D01*
X305204D01*
X315257Y964347D01*
X324271Y969551D01*
X331630Y976911D01*
X336834Y985924D01*
X339527Y995977D01*
Y1006385D01*
X336834Y1016438D01*
X331630Y1025452D01*
X324271Y1032811D01*
X315257Y1038015D01*
X305204Y1040709D01*
D02*
G37*
G36*
X239528Y996181D02*
X205000D01*
Y961654D01*
X205204D01*
X215257Y964347D01*
X224270Y969551D01*
X231630Y976911D01*
X236834Y985924D01*
X239528Y995977D01*
Y996181D01*
D02*
G37*
G36*
X195000D02*
X160472D01*
Y995977D01*
X163166Y985924D01*
X168370Y976911D01*
X175730Y969551D01*
X184743Y964347D01*
X194796Y961654D01*
X195000D01*
Y996181D01*
D02*
G37*
G36*
X105204Y1040709D02*
X94796D01*
X84743Y1038015D01*
X75730Y1032811D01*
X68370Y1025452D01*
X63166Y1016438D01*
X60472Y1006385D01*
Y995977D01*
X63166Y985924D01*
X68370Y976911D01*
X75730Y969551D01*
X84743Y964347D01*
X94796Y961654D01*
X105204D01*
X115257Y964347D01*
X124270Y969551D01*
X131630Y976911D01*
X136834Y985924D01*
X139528Y995977D01*
Y1006385D01*
X136834Y1016438D01*
X131630Y1025452D01*
X124270Y1032811D01*
X115257Y1038015D01*
X105204Y1040709D01*
D02*
G37*
G36*
X471614Y873189D02*
X447913D01*
Y852441D01*
X471614D01*
Y873189D01*
D02*
G37*
G36*
X437913D02*
X414213D01*
Y852441D01*
X437913D01*
Y873189D01*
D02*
G37*
G36*
X471614Y842441D02*
X447913D01*
Y821693D01*
X471614D01*
Y842441D01*
D02*
G37*
G36*
X437913D02*
X414213D01*
Y821693D01*
X437913D01*
Y842441D01*
D02*
G37*
G36*
X318071Y830866D02*
X301260D01*
Y790433D01*
X318071D01*
Y830866D01*
D02*
G37*
G36*
X291260D02*
X274449D01*
Y790433D01*
X291260D01*
Y830866D01*
D02*
G37*
G36*
Y780433D02*
X274449D01*
Y768701D01*
Y740000D01*
X288135D01*
X287775Y744451D01*
X287432Y746183D01*
X287012Y747600D01*
X286515Y748703D01*
X285943Y749490D01*
X285294Y749963D01*
X284569Y750120D01*
X291260D01*
Y780433D01*
D02*
G37*
G36*
X622205Y637953D02*
X598504D01*
Y617205D01*
X622205D01*
Y637953D01*
D02*
G37*
G36*
X588504D02*
X564803D01*
Y617205D01*
X588504D01*
Y637953D01*
D02*
G37*
G36*
X301339Y631063D02*
X280591D01*
Y607362D01*
X301339D01*
Y631063D01*
D02*
G37*
G36*
X270591D02*
X249843D01*
Y607362D01*
X270591D01*
Y631063D01*
D02*
G37*
G36*
X556260Y604488D02*
X532559D01*
Y578740D01*
Y552992D01*
X544998D01*
X545056Y552974D01*
X545257Y552992D01*
X545758D01*
X546140Y552916D01*
X546521Y552992D01*
X548228D01*
D01*
X556260D01*
Y570559D01*
X556219Y570556D01*
X553856Y570168D01*
X551809Y569625D01*
X550077Y568928D01*
X548660Y568075D01*
X547557Y567067D01*
X546770Y565904D01*
X546297Y564585D01*
X546140Y563112D01*
Y594368D01*
X546297Y592895D01*
X546770Y591577D01*
X547557Y590414D01*
X548660Y589405D01*
X550077Y588553D01*
X551809Y587855D01*
X553856Y587312D01*
X556219Y586924D01*
X556260Y586921D01*
Y604488D01*
D02*
G37*
G36*
X622205Y607205D02*
X598504D01*
Y596697D01*
X609252D01*
X607756Y596538D01*
X606417Y596062D01*
X605236Y595269D01*
X604212Y594158D01*
X603346Y592730D01*
X602638Y590984D01*
X602087Y588922D01*
X601693Y586541D01*
X601686Y586457D01*
X622205D01*
Y607205D01*
D02*
G37*
G36*
X588504D02*
X564803D01*
Y586457D01*
X585322D01*
X585315Y586541D01*
X584921Y588922D01*
X584370Y590984D01*
X583661Y592730D01*
X582795Y594158D01*
X581772Y595269D01*
X580591Y596062D01*
X579252Y596538D01*
X577756Y596697D01*
X588504D01*
Y607205D01*
D02*
G37*
G36*
X522559Y604488D02*
X498858D01*
Y583740D01*
X522559D01*
Y604488D01*
D02*
G37*
G36*
X712756Y579882D02*
X692008D01*
Y556181D01*
X712756D01*
Y579882D01*
D02*
G37*
G36*
X682008D02*
X661260D01*
Y559363D01*
X661344Y559370D01*
X663725Y559764D01*
X665787Y560315D01*
X667533Y561024D01*
X668961Y561890D01*
X670072Y562913D01*
X670865Y564095D01*
X671341Y565433D01*
X671500Y566929D01*
Y556181D01*
X682008D01*
Y579882D01*
D02*
G37*
G36*
X522559Y573740D02*
X498858D01*
Y552992D01*
X522559D01*
Y573740D01*
D02*
G37*
G36*
X682008Y546181D02*
X671500D01*
Y535433D01*
X671341Y536929D01*
X670865Y538268D01*
X670072Y539449D01*
X668961Y540472D01*
X667533Y541339D01*
X665787Y542047D01*
X663725Y542598D01*
X661344Y542992D01*
X661260Y543000D01*
Y522480D01*
X682008D01*
Y546181D01*
D02*
G37*
G36*
X556260Y545433D02*
X498858D01*
Y533895D01*
X479234D01*
X474953Y538176D01*
X466937Y541496D01*
X458260D01*
X450243Y538176D01*
X444108Y532040D01*
X440787Y524024D01*
Y515346D01*
X444108Y507330D01*
X450243Y501195D01*
X458260Y497874D01*
X466937D01*
X474953Y501195D01*
X479234Y505475D01*
X498858D01*
Y493937D01*
X548228D01*
D01*
X556260D01*
Y545433D01*
D02*
G37*
G36*
X771811Y579882D02*
X720315D01*
Y522480D01*
X771811D01*
Y532662D01*
X773058Y532870D01*
X774039Y532957D01*
X776749D01*
X777015Y532691D01*
X785032Y529370D01*
X793709D01*
X801725Y532691D01*
X807861Y538826D01*
X811181Y546843D01*
Y555520D01*
X807861Y563536D01*
X801725Y569672D01*
X793709Y572992D01*
X785032D01*
X777015Y569672D01*
X776783Y569440D01*
X776702Y569435D01*
X771811Y571038D01*
Y579882D01*
D02*
G37*
G36*
X712756Y546181D02*
X692008D01*
Y522480D01*
X712756D01*
Y546181D01*
D02*
G37*
G36*
X653701Y519842D02*
X633182D01*
X633189Y519758D01*
X633583Y517378D01*
X634134Y515315D01*
X634842Y513569D01*
X635709Y512141D01*
X636732Y511031D01*
X637913Y510237D01*
X639252Y509761D01*
X640748Y509602D01*
X630000D01*
Y499094D01*
X653701D01*
Y519842D01*
D02*
G37*
G36*
X616818D02*
X596299D01*
Y499094D01*
X620000D01*
Y509602D01*
X609252D01*
X610748Y509761D01*
X612087Y510237D01*
X613268Y511031D01*
X614291Y512141D01*
X615158Y513569D01*
X615866Y515315D01*
X616417Y517378D01*
X616811Y519758D01*
X616818Y519842D01*
D02*
G37*
G36*
X653701Y489094D02*
X630000D01*
Y468346D01*
X653701D01*
Y489094D01*
D02*
G37*
G36*
X620000D02*
X596299D01*
Y468346D01*
X620000D01*
Y489094D01*
D02*
G37*
G36*
X524764Y453898D02*
X473268D01*
Y445428D01*
X457956D01*
X454142Y447008D01*
X445465D01*
X437448Y443687D01*
X431313Y437552D01*
X427992Y429535D01*
Y420858D01*
X431313Y412842D01*
X437448Y406706D01*
X445465Y403386D01*
X454142D01*
X457956Y404966D01*
X473268D01*
Y396496D01*
X524764D01*
Y453898D01*
D02*
G37*
G36*
X583819D02*
X563071D01*
Y430197D01*
X583819D01*
Y453898D01*
D02*
G37*
G36*
X553071D02*
X532323D01*
Y430197D01*
X553071D01*
Y453898D01*
D02*
G37*
G36*
X583819Y420197D02*
X563071D01*
Y396496D01*
X583819D01*
Y420197D01*
D02*
G37*
G36*
X553071D02*
X532323D01*
Y396496D01*
X553071D01*
Y420197D01*
D02*
G37*
G36*
X653701Y460787D02*
X596299D01*
Y409291D01*
X604769D01*
Y391026D01*
X603189Y387212D01*
Y378536D01*
X606510Y370519D01*
X612645Y364384D01*
X620662Y361063D01*
X629338D01*
X637355Y364384D01*
X641635Y368664D01*
X1346049D01*
X1347963Y364045D01*
X1347651Y363733D01*
X1344331Y355716D01*
Y349663D01*
X1286006Y291339D01*
X1274626Y279958D01*
X1231202D01*
X1226922Y284238D01*
X1218905Y287559D01*
X1210228D01*
X1202212Y284238D01*
X1196076Y278103D01*
X1192756Y270087D01*
Y261409D01*
X1193239Y260244D01*
X1195121Y255700D01*
X1196076Y253393D01*
X1202212Y247257D01*
X1210228Y243937D01*
X1218905D01*
X1226922Y247257D01*
X1231202Y251538D01*
X1280512D01*
X1285950Y252620D01*
X1290560Y255700D01*
X1364427Y329567D01*
X1370480D01*
X1378497Y332887D01*
X1384632Y339023D01*
X1387953Y347039D01*
Y355716D01*
X1384632Y363733D01*
X1378497Y369868D01*
X1373511Y371934D01*
X1372314Y377808D01*
X1391713Y397207D01*
X1519835D01*
X1519893Y397195D01*
X1520079Y397140D01*
X1520270Y397065D01*
X1520481Y396961D01*
X1520721Y396817D01*
X1521000Y396618D01*
X1521323Y396351D01*
X1521927Y395774D01*
X1522673Y395301D01*
X1525047Y392927D01*
X1533063Y389606D01*
X1541740D01*
X1549756Y392927D01*
X1555892Y399062D01*
X1557992Y404132D01*
X1559213Y407079D01*
Y415756D01*
X1557992Y418703D01*
D01*
X1555892Y423772D01*
X1549756Y429908D01*
X1541740Y433228D01*
X1533063D01*
X1525047Y429908D01*
X1522673Y427534D01*
X1521927Y427060D01*
X1521323Y426484D01*
X1521000Y426216D01*
X1520721Y426018D01*
X1520481Y425874D01*
X1520270Y425770D01*
X1520079Y425695D01*
X1519892Y425639D01*
X1519835Y425627D01*
X1385827D01*
X1380389Y424546D01*
X1375779Y421465D01*
X1351398Y397084D01*
X645231D01*
Y409291D01*
X653701D01*
Y460787D01*
D02*
G37*
G36*
X566346Y268858D02*
X557669D01*
X553228Y267019D01*
X552915Y267228D01*
X552842Y266859D01*
X549653Y265538D01*
X543517Y259402D01*
X540197Y251386D01*
Y242709D01*
X543517Y234692D01*
X547798Y230412D01*
Y219488D01*
X548880Y214050D01*
X551960Y209440D01*
X581487Y179913D01*
X586097Y176832D01*
X591535Y175751D01*
X705335D01*
X763708Y117377D01*
X763166Y116438D01*
X760472Y106385D01*
Y95977D01*
X763166Y85924D01*
X768370Y76911D01*
X775730Y69551D01*
X784743Y64347D01*
X794796Y61654D01*
X805204D01*
X815257Y64347D01*
X824270Y69551D01*
X831630Y76911D01*
X836834Y85924D01*
X839528Y95977D01*
Y106385D01*
X836834Y116438D01*
X831630Y125452D01*
X824270Y132811D01*
X815257Y138015D01*
X805204Y140709D01*
X794796D01*
X784743Y138015D01*
X783804Y137473D01*
X721269Y200009D01*
X716658Y203089D01*
X711221Y204171D01*
X597421D01*
X582104Y219488D01*
X576218Y225374D01*
Y230412D01*
X580498Y234692D01*
X583819Y242709D01*
Y251386D01*
X582221Y255244D01*
X580498Y259402D01*
X574363Y265538D01*
X566346Y268858D01*
D02*
G37*
G36*
X205204Y140709D02*
X205000D01*
Y106181D01*
X239528D01*
Y106385D01*
X236834Y116438D01*
X231630Y125452D01*
X224270Y132811D01*
X215257Y138015D01*
X205204Y140709D01*
D02*
G37*
G36*
X305204D02*
X305000D01*
Y106181D01*
X339527D01*
Y106385D01*
X336834Y116438D01*
X331630Y125452D01*
X324271Y132811D01*
X315257Y138015D01*
X305204Y140709D01*
D02*
G37*
G36*
X195000D02*
X194796D01*
X184743Y138015D01*
X175730Y132811D01*
X168370Y125452D01*
X163166Y116438D01*
X160472Y106385D01*
Y106181D01*
X195000D01*
Y140709D01*
D02*
G37*
G36*
X295000D02*
X294796D01*
X284743Y138015D01*
X275729Y132811D01*
X268370Y125452D01*
X263166Y116438D01*
X260473Y106385D01*
Y106181D01*
X295000D01*
Y140709D01*
D02*
G37*
G36*
X1005204D02*
X994796D01*
X984743Y138015D01*
X975730Y132811D01*
X968370Y125452D01*
X963166Y116438D01*
X960472Y106385D01*
Y95977D01*
X963166Y85924D01*
X968370Y76911D01*
X975730Y69551D01*
X984743Y64347D01*
X994796Y61654D01*
X1005204D01*
X1015257Y64347D01*
X1024271Y69551D01*
X1031630Y76911D01*
X1036834Y85924D01*
X1039527Y95977D01*
Y106385D01*
X1036834Y116438D01*
X1031630Y125452D01*
X1024271Y132811D01*
X1015257Y138015D01*
X1005204Y140709D01*
D02*
G37*
G36*
X905204D02*
X894796D01*
X884743Y138015D01*
X875730Y132811D01*
X868370Y125452D01*
X863166Y116438D01*
X860472Y106385D01*
Y95977D01*
X863166Y85924D01*
X868370Y76911D01*
X875730Y69551D01*
X884743Y64347D01*
X894796Y61654D01*
X905204D01*
X915257Y64347D01*
X924270Y69551D01*
X931630Y76911D01*
X936834Y85924D01*
X939528Y95977D01*
Y106385D01*
X936834Y116438D01*
X931630Y125452D01*
X924270Y132811D01*
X915257Y138015D01*
X905204Y140709D01*
D02*
G37*
G36*
X705204D02*
X694796D01*
X684743Y138015D01*
X675730Y132811D01*
X668370Y125452D01*
X663166Y116438D01*
X660472Y106385D01*
Y95977D01*
X663166Y85924D01*
X668370Y76911D01*
X675730Y69551D01*
X684743Y64347D01*
X694796Y61654D01*
X705204D01*
X715257Y64347D01*
X724270Y69551D01*
X731630Y76911D01*
X736834Y85924D01*
X739528Y95977D01*
Y106385D01*
X736834Y116438D01*
X731630Y125452D01*
X724270Y132811D01*
X715257Y138015D01*
X705204Y140709D01*
D02*
G37*
G36*
X605204D02*
X594796D01*
X584743Y138015D01*
X575730Y132811D01*
X568370Y125452D01*
X563166Y116438D01*
X560472Y106385D01*
Y95977D01*
X563166Y85924D01*
X568370Y76911D01*
X575730Y69551D01*
X584743Y64347D01*
X594796Y61654D01*
X605204D01*
X615257Y64347D01*
X624270Y69551D01*
X631630Y76911D01*
X636834Y85924D01*
X639528Y95977D01*
Y106385D01*
X636834Y116438D01*
X631630Y125452D01*
X624270Y132811D01*
X615257Y138015D01*
X605204Y140709D01*
D02*
G37*
G36*
X505204D02*
X494796D01*
X484743Y138015D01*
X475729Y132811D01*
X468370Y125452D01*
X463166Y116438D01*
X460473Y106385D01*
Y95977D01*
X463166Y85924D01*
X468370Y76911D01*
X475729Y69551D01*
X484743Y64347D01*
X494796Y61654D01*
X505204D01*
X515257Y64347D01*
X524270Y69551D01*
X531630Y76911D01*
X536834Y85924D01*
X539528Y95977D01*
Y106385D01*
X536834Y116438D01*
X531630Y125452D01*
X524270Y132811D01*
X515257Y138015D01*
X505204Y140709D01*
D02*
G37*
G36*
X405204D02*
X394796D01*
X384743Y138015D01*
X375729Y132811D01*
X368370Y125452D01*
X363166Y116438D01*
X360473Y106385D01*
Y95977D01*
X363166Y85924D01*
X368370Y76911D01*
X375729Y69551D01*
X384743Y64347D01*
X394796Y61654D01*
X405204D01*
X415257Y64347D01*
X424271Y69551D01*
X431630Y76911D01*
X436834Y85924D01*
X439527Y95977D01*
Y106385D01*
X436834Y116438D01*
X431630Y125452D01*
X424271Y132811D01*
X415257Y138015D01*
X405204Y140709D01*
D02*
G37*
G36*
X339527Y96181D02*
X305000D01*
Y61654D01*
X305204D01*
X315257Y64347D01*
X324271Y69551D01*
X331630Y76911D01*
X336834Y85924D01*
X339527Y95977D01*
Y96181D01*
D02*
G37*
G36*
X295000D02*
X260473D01*
Y95977D01*
X263166Y85924D01*
X268370Y76911D01*
X275729Y69551D01*
X284743Y64347D01*
X294796Y61654D01*
X295000D01*
Y96181D01*
D02*
G37*
G36*
X239528D02*
X205000D01*
Y61654D01*
X205204D01*
X215257Y64347D01*
X224270Y69551D01*
X231630Y76911D01*
X236834Y85924D01*
X239528Y95977D01*
Y96181D01*
D02*
G37*
G36*
X195000D02*
X160472D01*
Y95977D01*
X163166Y85924D01*
X168370Y76911D01*
X175730Y69551D01*
X184743Y64347D01*
X194796Y61654D01*
X195000D01*
Y96181D01*
D02*
G37*
G36*
X105204Y140709D02*
X94796D01*
X84743Y138015D01*
X75730Y132811D01*
X68370Y125452D01*
X63166Y116438D01*
X60472Y106385D01*
Y95977D01*
X63166Y85924D01*
X68370Y76911D01*
X75730Y69551D01*
X84743Y64347D01*
X94796Y61654D01*
X105204D01*
X115257Y64347D01*
X124270Y69551D01*
X131630Y76911D01*
X136834Y85924D01*
X139528Y95977D01*
Y106385D01*
X136834Y116438D01*
X131630Y125452D01*
X124270Y132811D01*
X115257Y138015D01*
X105204Y140709D01*
D02*
G37*
%LPD*%
G36*
X509098Y511811D02*
X509018Y512559D01*
X508779Y513228D01*
X508379Y513819D01*
X507819Y514331D01*
X507100Y514764D01*
X506221Y515118D01*
X505181Y515394D01*
X503982Y515591D01*
X502623Y515709D01*
X501104Y515748D01*
Y523622D01*
X502623Y523661D01*
X503982Y523779D01*
X505181Y523976D01*
X506221Y524252D01*
X507100Y524606D01*
X507819Y525039D01*
X508379Y525551D01*
X508779Y526142D01*
X509018Y526811D01*
X509098Y527559D01*
Y511811D01*
D02*
G37*
G36*
X761848Y565433D02*
X762321Y564095D01*
X763108Y562913D01*
X764211Y561890D01*
X765628Y561024D01*
X767360Y560315D01*
X769408Y559764D01*
X771770Y559370D01*
X774447Y559134D01*
X774796Y559125D01*
X780935Y559449D01*
Y542913D01*
X780791Y542988D01*
X780514Y543055D01*
X780102Y543114D01*
X778879Y543209D01*
X776133Y543273D01*
X774447Y543228D01*
X771770Y542992D01*
X769408Y542598D01*
X767360Y542047D01*
X765628Y541339D01*
X764211Y540472D01*
X763108Y539449D01*
X762321Y538268D01*
X761848Y536929D01*
X761691Y535433D01*
Y566929D01*
X761848Y565433D01*
D02*
G37*
G36*
X1528967Y403150D02*
X1528105Y403972D01*
X1527217Y404709D01*
X1526303Y405358D01*
X1525363Y405921D01*
X1524398Y406398D01*
X1523406Y406787D01*
X1522388Y407091D01*
X1521345Y407307D01*
X1520275Y407437D01*
X1519179Y407480D01*
Y415354D01*
X1520275Y415398D01*
X1521345Y415527D01*
X1522388Y415744D01*
X1523406Y416047D01*
X1524398Y416437D01*
X1525363Y416913D01*
X1526303Y417476D01*
X1527217Y418126D01*
X1528105Y418862D01*
X1528967Y419685D01*
Y403150D01*
D02*
G37*
D11*
X334646Y444882D02*
Y602362D01*
X263779Y374016D02*
X334646Y444882D01*
X263779Y288386D02*
Y374016D01*
D13*
X625000Y382874D02*
X1357284D01*
X1385827Y411417D02*
X1537402D01*
X1357284Y382874D02*
X1385827Y411417D01*
X462598Y519685D02*
X527559D01*
X1100000Y101181D02*
Y147244D01*
X1145669Y192913D02*
X1515748D01*
X1100000Y147244D02*
X1145669Y192913D01*
X1199803Y218504D02*
X1505905D01*
X1615158Y327756D01*
X1280512Y265748D02*
X1366142Y351378D01*
X1214567Y265748D02*
X1280512D01*
X1615158Y639764D02*
X1698868Y723475D01*
X1615158Y327756D02*
Y639764D01*
X1515748Y192913D02*
X1634842Y312008D01*
Y577362D01*
X1708661Y651181D01*
X711221Y189961D02*
X800000Y101181D01*
X591535Y189961D02*
X711221D01*
X562008Y219488D02*
X591535Y189961D01*
X562008Y219488D02*
Y247047D01*
X505906Y690945D02*
X530512Y715551D01*
X333661Y690945D02*
X505906D01*
X164370Y551181D02*
X291339D01*
X260335Y525098D02*
X260827Y524606D01*
X164370Y525591D02*
X164862Y525098D01*
X260335D01*
X1698868Y723475D02*
Y741388D01*
X1708661Y751181D01*
X213583Y489173D02*
X216535D01*
D14*
X275591Y602362D02*
D03*
X334646D02*
D03*
X746063Y551181D02*
D03*
X687008D02*
D03*
X558071Y425197D02*
D03*
X499016D02*
D03*
D15*
X442913Y847441D02*
D03*
Y788386D02*
D03*
X593504Y612205D02*
D03*
Y671260D02*
D03*
X527559Y519685D02*
D03*
Y578740D02*
D03*
X625000Y435039D02*
D03*
Y494094D02*
D03*
D29*
Y545275D01*
X624016Y546260D02*
X625000Y545275D01*
X643701Y551181D02*
X687008D01*
X642716Y550197D02*
X643701Y551181D01*
X593504Y574803D02*
Y612205D01*
X570866Y578740D02*
X576772Y572835D01*
X527559Y578740D02*
X570866D01*
X296260Y722441D02*
Y785433D01*
X295276Y721457D02*
X296260Y722441D01*
X164370Y602362D02*
X214567D01*
X746063Y551181D02*
X789370D01*
X123031Y708661D02*
X145669Y686024D01*
X146654Y685039D01*
X145669Y686024D02*
Y779528D01*
X58071Y598425D02*
Y708661D01*
X123031D01*
X58071Y503937D02*
Y598425D01*
Y393701D02*
Y503937D01*
Y393701D02*
X83661Y419291D01*
X146654D01*
X164370Y500000D02*
X202756D01*
X213583Y489173D01*
D30*
X625000Y382874D02*
Y435039D01*
X449803Y425197D02*
X499016D01*
X200787Y875000D02*
X346457D01*
X371063Y850394D01*
Y785433D02*
Y850394D01*
X334154Y602854D02*
Y690453D01*
Y602854D02*
X334646Y602362D01*
X333661Y690945D02*
X334154Y690453D01*
D31*
X442913Y785433D02*
X536417D01*
X593504Y728346D01*
Y671260D02*
Y728346D01*
D32*
X1708661Y751181D02*
D03*
Y651181D02*
D03*
Y551181D02*
D03*
Y451181D02*
D03*
X100000Y1001181D02*
D03*
X200000D02*
D03*
X300000D02*
D03*
X400000D02*
D03*
X500000D02*
D03*
X600000D02*
D03*
X700000D02*
D03*
X800000D02*
D03*
X900000D02*
D03*
X1000000D02*
D03*
X1100000D02*
D03*
X1200000D02*
D03*
X1300000D02*
D03*
X1400000D02*
D03*
X1500000D02*
D03*
X1600000D02*
D03*
Y101181D02*
D03*
X1500000D02*
D03*
X1400000D02*
D03*
X1300000D02*
D03*
X1200000D02*
D03*
X1100000D02*
D03*
X1000000D02*
D03*
X900000D02*
D03*
X800000D02*
D03*
X700000D02*
D03*
X600000D02*
D03*
X500000D02*
D03*
X400000D02*
D03*
X300000D02*
D03*
X200000D02*
D03*
X100000D02*
D03*
D33*
X1708661Y351181D02*
D03*
D34*
X1700000Y1001181D02*
D03*
Y101181D02*
D03*
D35*
X240157Y489173D02*
D03*
X1101378Y796260D02*
D03*
X1233268Y426181D02*
D03*
X1078740Y423228D02*
D03*
X1420276Y376969D02*
D03*
X1493110D02*
D03*
X1537402Y411417D02*
D03*
X593504Y699803D02*
D03*
X1077756Y717520D02*
D03*
X957677Y501969D02*
D03*
X1196850Y597441D02*
D03*
X462598Y519685D02*
D03*
X1199803Y218504D02*
D03*
X1214567Y265748D02*
D03*
X1366142Y351378D02*
D03*
X635827Y715551D02*
D03*
X782480Y604331D02*
D03*
X466535Y565945D02*
D03*
X530512Y715551D02*
D03*
X562008Y247047D02*
D03*
X593504Y271654D02*
D03*
X789370Y551181D02*
D03*
X625000Y382874D02*
D03*
X449803Y425197D02*
D03*
X593504Y728346D02*
D03*
X200787Y875000D02*
D03*
X207677Y775591D02*
D03*
X263779Y288386D02*
D03*
X291339Y551181D02*
D03*
X260827Y525591D02*
D03*
X1595473Y671260D02*
D03*
X1504921Y705709D02*
D03*
X1628937Y789370D02*
D03*
X1495079Y580709D02*
D03*
X1384843Y779528D02*
D03*
X1377953Y644685D02*
D03*
X1207677Y769685D02*
D03*
X1352362Y512795D02*
D03*
X145669Y779528D02*
D03*
X216535Y489173D02*
D03*
D36*
X296260Y785433D02*
D03*
X371063D02*
D03*
X333661Y690945D02*
D03*
D37*
X58071Y708661D02*
D03*
Y393701D02*
D03*
D38*
X164370Y525591D02*
D03*
Y602362D02*
D03*
Y576772D02*
D03*
Y551181D02*
D03*
Y500000D02*
D03*
D39*
X146654Y683071D02*
D03*
Y419291D02*
D03*
D40*
X58071Y503937D02*
D03*
Y598425D02*
D03*
D41*
X371063Y785433D02*
X442913D01*
Y788386D02*
X444882Y786417D01*
X447835D01*
M02*
