G04*
G04 #@! TF.GenerationSoftware,Altium Limited,Altium Designer,22.4.2 (48)*
G04*
G04 Layer_Color=8388736*
%FSLAX26Y26*%
%MOIN*%
G70*
G04*
G04 #@! TF.SameCoordinates,6CEC26E3-1FB6-4E6F-AFBB-73261986176E*
G04*
G04*
G04 #@! TF.FilePolarity,Negative*
G04*
G01*
G75*
%ADD20R,0.039496X0.045402*%
%ADD21R,0.045402X0.039496*%
%ADD22O,0.070992X0.029654*%
%ADD23O,0.029654X0.070992*%
%ADD24R,0.055244X0.063118*%
%ADD25R,0.061150X0.039496*%
%ADD26C,0.067055*%
%ADD27R,0.067055X0.067055*%
%ADD28R,0.067055X0.067055*%
D20*
X966378Y731142D02*
D03*
X1025433D02*
D03*
X206693Y817913D02*
D03*
X145669D02*
D03*
X656496Y208661D02*
D03*
X595472D02*
D03*
D21*
X1109252Y584646D02*
D03*
Y525591D02*
D03*
D22*
X396654Y708661D02*
D03*
Y677165D02*
D03*
Y645669D02*
D03*
Y614173D02*
D03*
Y582677D02*
D03*
Y551181D02*
D03*
Y519685D02*
D03*
Y488189D02*
D03*
Y456693D02*
D03*
Y425197D02*
D03*
Y393701D02*
D03*
X853346D02*
D03*
Y425197D02*
D03*
Y456693D02*
D03*
Y488189D02*
D03*
Y519685D02*
D03*
Y551181D02*
D03*
Y582677D02*
D03*
Y614173D02*
D03*
Y645669D02*
D03*
Y677165D02*
D03*
Y708661D02*
D03*
D23*
X467520Y322835D02*
D03*
X499016D02*
D03*
X530512D02*
D03*
X562008D02*
D03*
X593504D02*
D03*
X625000D02*
D03*
X656496D02*
D03*
X687992D02*
D03*
X719488D02*
D03*
X750984D02*
D03*
X782480D02*
D03*
Y779528D02*
D03*
X750984D02*
D03*
X719488D02*
D03*
X687992D02*
D03*
X656496D02*
D03*
X625000D02*
D03*
X593504D02*
D03*
X562008D02*
D03*
X530512D02*
D03*
X499016D02*
D03*
X467520D02*
D03*
D24*
X1023622Y649606D02*
D03*
X944882D02*
D03*
X1023622Y562992D02*
D03*
X944882D02*
D03*
D25*
X263779Y344488D02*
D03*
Y421260D02*
D03*
D26*
X1708661Y751181D02*
D03*
Y651181D02*
D03*
Y551181D02*
D03*
Y451181D02*
D03*
X100000Y1001181D02*
D03*
X200000D02*
D03*
X300000D02*
D03*
X400000D02*
D03*
X500000D02*
D03*
X600000D02*
D03*
X700000D02*
D03*
X800000D02*
D03*
X900000D02*
D03*
X1000000D02*
D03*
X1100000D02*
D03*
X1200000D02*
D03*
X1300000D02*
D03*
X1400000D02*
D03*
X1500000D02*
D03*
X1600000D02*
D03*
Y101181D02*
D03*
X1500000D02*
D03*
X1400000D02*
D03*
X1300000D02*
D03*
X1200000D02*
D03*
X1100000D02*
D03*
X1000000D02*
D03*
X900000D02*
D03*
X800000D02*
D03*
X700000D02*
D03*
X600000D02*
D03*
X500000D02*
D03*
X400000D02*
D03*
X300000D02*
D03*
X200000D02*
D03*
X100000D02*
D03*
D27*
X1708661Y351181D02*
D03*
D28*
X1700000Y1001181D02*
D03*
Y101181D02*
D03*
M02*
